<svg width="146.0908" height="121.6382" xmlns="http://www.w3.org/2000/svg" xmlns:xlink="http://www.w3.org/1999/xlink">
 <g>
  <title>background</title>
  <rect fill="none" id="canvas_background" height="602" width="802" y="-1" x="-1"/>
 </g>
 <g>
  <title>Layer 1</title>
  <g id="svg_1">
   <defs>
    <rect height="121.0532" width="145.0361" x="1.0547" id="SVGID_1_"/>
   </defs>
   <clipPath id="SVGID_2_">
    <use id="svg_2" xlink:href="#SVGID_1_"/>
   </clipPath>
   <g id="svg_3" clip-path="url(#SVGID_2_)"/>
  </g>
  <g id="svg_4">
   <defs>
    <polygon points="63.5029,16.9873 78.7666,16.9873 78.7666,0.4971 63.5029,0.4971 63.5029,16.9873   " id="SVGID_3_"/>
   </defs>
   <clipPath id="SVGID_4_">
    <use id="svg_5" xlink:href="#SVGID_3_"/>
   </clipPath>
   <g id="svg_6" clip-path="url(#SVGID_4_)">
    <path id="svg_7" d="m68.7598,4.5034l0.104,-0.2734l3.6074,0c0.606,0 1.1465,0.0938 1.6211,0.2803c0.4741,0.1875 0.8296,0.4482 1.0649,0.7832c0.2363,0.334 0.3555,0.6885 0.3555,1.0625c0,0.5752 -0.2109,1.0957 -0.6304,1.5615c-0.4199,0.4648 -1.1045,0.8076 -2.0537,1.0293c0.6113,0.2266 1.061,0.5264 1.3491,0.9004s0.4321,0.7852 0.4321,1.2324c0,0.4971 -0.1289,0.9717 -0.3872,1.4248s-0.5903,0.8047 -0.9951,1.0557s-0.8931,0.4355 -1.4644,0.5537c-0.4077,0.083 -1.0435,0.125 -1.9082,0.125l-3.7036,0l0.0967,-0.2725c0.3877,-0.0098 0.6509,-0.0469 0.79,-0.1113c0.1987,-0.083 0.3403,-0.1943 0.4248,-0.332c0.1191,-0.1865 0.2783,-0.6152 0.4771,-1.2842l1.811,-6.0596c0.1538,-0.5127 0.231,-0.8711 0.231,-1.0781c0,-0.1816 -0.0684,-0.3262 -0.2051,-0.4316s-0.396,-0.1592 -0.7788,-0.1592c-0.0844,0 -0.164,-0.002 -0.2382,-0.0069zm0.0444,9.086c0.5366,0.0693 0.9565,0.1035 1.2598,0.1035c0.7749,0 1.4619,-0.2314 2.0605,-0.6943c0.5986,-0.4619 0.8979,-1.0898 0.8979,-1.8818c0,-0.6055 -0.1851,-1.0771 -0.5552,-1.417s-0.9678,-0.5098 -1.7925,-0.5098c-0.1587,0 -0.3525,0.0078 -0.5811,0.0225l-1.2894,4.3769zm1.4683,-4.9307c0.3232,0.0098 0.5566,0.0146 0.7007,0.0146c1.0332,0 1.8022,-0.2227 2.3066,-0.668s0.7563,-1.002 0.7563,-1.6719c0,-0.5068 -0.1538,-0.9014 -0.4619,-1.1846s-0.8003,-0.4238 -1.4756,-0.4238c-0.1792,0 -0.4077,0.0293 -0.686,0.0879l-1.1401,3.8458z"/>
   </g>
  </g>
  <g id="svg_8">
   <defs>
    <polygon points="0,119.7495 15.2627,119.7495 15.2627,103.2573 0,103.2573 0,119.7495   " id="SVGID_5_"/>
   </defs>
   <clipPath id="SVGID_6_">
    <use id="svg_9" xlink:href="#SVGID_5_"/>
   </clipPath>
   <g id="svg_10" clip-path="url(#SVGID_6_)">
    <path id="svg_11" d="m11.5986,106.7651l-0.7676,8.3252c-0.04,0.3887 -0.0601,0.6455 -0.0601,0.7676c0,0.1973 0.0376,0.3477 0.1118,0.4512c0.0947,0.1426 0.2227,0.248 0.3843,0.3174c0.1611,0.0684 0.4331,0.1025 0.8159,0.1025l-0.082,0.2734l-3.98,0l0.082,-0.2734l0.1714,0c0.3232,0 0.5864,-0.0684 0.79,-0.2061c0.144,-0.0938 0.2559,-0.249 0.3354,-0.4648c0.0547,-0.1533 0.1069,-0.5117 0.1567,-1.0781l0.1191,-1.2695l-2.8913,0l-1.0288,1.3799c-0.2334,0.3105 -0.3799,0.5332 -0.4395,0.668c-0.0596,0.1357 -0.0894,0.2627 -0.0894,0.3809c0,0.1572 0.0645,0.293 0.1934,0.4053c0.1294,0.1133 0.3433,0.1748 0.6411,0.1846l-0.082,0.2734l-2.9883,0l0.082,-0.2734c0.3677,-0.0146 0.6914,-0.1357 0.9722,-0.3652c0.2808,-0.2285 0.6997,-0.7168 1.2559,-1.4648l6.0371,-8.1338l0.2607,0l0,-0.0003zm-1.4756,2.4571l-2.9292,3.9492l2.5415,0l0.3877,-3.9492z"/>
   </g>
  </g>
  <g id="svg_12">
   <defs>
    <polygon points="42.8442,119.7495 63.7017,119.7495 63.7017,103.2573 42.8442,103.2573 42.8442,119.7495   " id="SVGID_7_"/>
   </defs>
   <clipPath id="SVGID_8_">
    <use id="svg_13" xlink:href="#SVGID_7_"/>
   </clipPath>
   <g id="svg_14" clip-path="url(#SVGID_8_)">
    <path id="svg_15" d="m50.4702,106.9937l0.9336,8.0605l5.8774,-8.0605l2.4722,0l0,0.2734c-0.5376,0.0342 -0.854,0.0684 -0.9482,0.1025c-0.1646,0.0645 -0.3154,0.1924 -0.4521,0.3838c-0.1367,0.1924 -0.2852,0.5615 -0.4443,1.1074l-1.8745,6.3477c-0.1099,0.3691 -0.1646,0.6602 -0.1646,0.8711c0,0.1924 0.0674,0.3369 0.2017,0.4355c0.1895,0.1426 0.4883,0.2139 0.8965,0.2139l0.1792,0l-0.0674,0.2734l-4.2642,0l0.0742,-0.2734l0.2017,0c0.3784,0 0.6675,-0.0537 0.8667,-0.1621c0.1543,-0.0781 0.2925,-0.2275 0.4146,-0.4463c0.1216,-0.2188 0.2925,-0.7051 0.5112,-1.458l1.6733,-5.8018l-5.9077,8.1416l-0.2988,0l-0.9482,-8.1416l-1.8076,6.1934c-0.1543,0.5264 -0.2314,0.8809 -0.2314,1.0625s0.0674,0.3213 0.2017,0.417s0.4604,0.1611 0.9785,0.1953l-0.0825,0.2734l-3.3384,0l0.082,-0.2734l0.2017,0c0.4932,0 0.8491,-0.123 1.0684,-0.3691c0.1592,-0.1768 0.3257,-0.5605 0.5,-1.1514l2.2036,-7.4619c-0.1646,-0.167 -0.3213,-0.2803 -0.4707,-0.3398c-0.1494,-0.0586 -0.4258,-0.1055 -0.8291,-0.1396l0.0747,-0.2734l2.5168,0l0,-0.0001z"/>
   </g>
  </g>
  <g id="svg_16">
   <defs>
    <polygon points="83.5264,119.7495 100.1689,119.7495 100.1689,103.2573 83.5264,103.2573 83.5264,119.7495   " id="SVGID_9_"/>
   </defs>
   <clipPath id="SVGID_10_">
    <use id="svg_17" xlink:href="#SVGID_9_"/>
   </clipPath>
   <g id="svg_18" clip-path="url(#SVGID_10_)">
    <path id="svg_19" d="m88.7568,107.2671l0.0898,-0.2734l3.2246,0c1.3672,0 2.3789,0.1553 3.0371,0.4648s1.1836,0.7988 1.5762,1.4648c0.3906,0.667 0.5879,1.3818 0.5879,2.1445c0,0.6543 -0.1133,1.291 -0.3398,1.9082c-0.2246,0.6172 -0.4805,1.1123 -0.7676,1.4834c-0.2852,0.3721 -0.7227,0.7813 -1.3145,1.2295c-0.5898,0.4473 -1.2305,0.7783 -1.9219,0.9922c-0.6895,0.2139 -1.5527,0.3213 -2.584,0.3213l-4.2773,0l0.0977,-0.2734c0.3926,-0.0098 0.6543,-0.0439 0.7891,-0.1025c0.1992,-0.084 0.3457,-0.1973 0.4395,-0.3398c0.1445,-0.207 0.3047,-0.623 0.4844,-1.248l1.7871,-6.0518c0.1406,-0.4775 0.209,-0.8516 0.209,-1.1221c0,-0.1924 -0.0645,-0.3398 -0.1934,-0.4434s-0.3828,-0.1543 -0.7598,-0.1543l-0.1641,0zm2.6446,0.2803l-2.1895,7.4912c-0.1641,0.5615 -0.2461,0.9082 -0.2461,1.041c0,0.0791 0.0254,0.1553 0.0781,0.2295c0.0527,0.0732 0.123,0.123 0.2129,0.1475c0.1289,0.0439 0.3379,0.0664 0.625,0.0664c0.7793,0 1.5039,-0.0801 2.1719,-0.2402s1.2148,-0.3975 1.6426,-0.7119c0.6055,-0.458 1.0898,-1.0879 1.4531,-1.8896c0.3613,-0.8027 0.543,-1.7148 0.543,-2.7383c0,-1.1563 -0.2773,-2.0166 -0.834,-2.5801s-1.3691,-0.8457 -2.4355,-0.8457c-0.2637,-0.0001 -0.6036,0.0106 -1.0215,0.0302z"/>
   </g>
  </g>
  <g id="svg_20">
   <defs>
    <polygon points="101.3467,120.4399 119.374,120.4399 119.374,102.5669 101.3467,102.5669 101.3467,120.4399   " id="SVGID_11_"/>
   </defs>
   <clipPath id="SVGID_12_">
    <use id="svg_21" xlink:href="#SVGID_11_"/>
   </clipPath>
   <g id="svg_22" clip-path="url(#SVGID_12_)">
    <path id="svg_23" d="m108.9678,106.3003l3.1211,7.8486l1.6895,-5.8633c0.1406,-0.4824 0.209,-0.8564 0.209,-1.1221c0,-0.1816 -0.0645,-0.3252 -0.1934,-0.4277c-0.1289,-0.1035 -0.3691,-0.1553 -0.7227,-0.1553c-0.0586,0 -0.1211,-0.0029 -0.1855,-0.0078l0.082,-0.2725l3.2461,0l-0.0879,0.2725c-0.3379,-0.0049 -0.5898,0.0303 -0.7539,0.1035c-0.2324,0.1035 -0.4063,0.2363 -0.5215,0.3984c-0.1582,0.2314 -0.3203,0.6357 -0.4824,1.2109l-2.377,8.2549l-0.2676,0l-3.3594,-8.4463l-1.7949,6.2393c-0.1328,0.4727 -0.2012,0.834 -0.2012,1.085c0,0.1875 0.0605,0.3291 0.1836,0.4248c0.1211,0.0957 0.4102,0.1611 0.8672,0.1953l-0.0742,0.2734l-3.1738,0l0.1055,-0.2734c0.3965,-0.0098 0.6621,-0.0439 0.7969,-0.1035c0.2031,-0.0879 0.3555,-0.2041 0.4531,-0.3467c0.1445,-0.2168 0.3066,-0.6348 0.4844,-1.2549l2.0039,-6.9629c-0.1934,-0.2959 -0.4004,-0.498 -0.6211,-0.6094c-0.2227,-0.1104 -0.5664,-0.1738 -1.0332,-0.1885l0.082,-0.2725l2.5254,0l0,0.0002z"/>
   </g>
  </g>
  <g id="svg_24">
   <defs>
    <polygon points="125.4521,120.4399 142.0947,120.4399 142.0947,102.5669 125.4521,102.5669 125.4521,120.4399       " id="SVGID_13_"/>
   </defs>
   <clipPath id="SVGID_14_">
    <use id="svg_25" xlink:href="#SVGID_13_"/>
   </clipPath>
   <g id="svg_26" clip-path="url(#SVGID_14_)">
    <path id="svg_27" d="m138.2725,106.0708l-0.752,3.2412l-0.2676,0l-0.0313,-0.8115c-0.0234,-0.2959 -0.082,-0.5586 -0.1699,-0.79c-0.0898,-0.2314 -0.2246,-0.4326 -0.4023,-0.6025c-0.1797,-0.1689 -0.4063,-0.3027 -0.6777,-0.3984c-0.2734,-0.0957 -0.5762,-0.1436 -0.9102,-0.1436c-0.8887,0 -1.666,0.2412 -2.332,0.7236c-0.8477,0.6152 -1.5137,1.4834 -1.9961,2.6064c-0.3965,0.9248 -0.5957,1.8633 -0.5957,2.8125c0,0.9697 0.2852,1.7441 0.8574,2.3223c0.5703,0.5791 1.3125,0.8682 2.2266,0.8682c0.6914,0 1.3047,-0.1533 1.8438,-0.458c0.5391,-0.3057 1.0391,-0.7754 1.502,-1.4102l0.3496,0c-0.5469,0.8613 -1.1523,1.4951 -1.8184,1.9014c-0.6641,0.4053 -1.4629,0.6084 -2.3906,0.6084c-0.8242,0 -1.5547,-0.1709 -2.1914,-0.5127c-0.6348,-0.3418 -1.1191,-0.8232 -1.4512,-1.4434c-0.334,-0.6201 -0.5,-1.2871 -0.5,-2.001c0,-1.0928 0.2949,-2.1563 0.8867,-3.1895c0.5918,-1.0342 1.4023,-1.8467 2.4316,-2.4375c1.0313,-0.5898 2.0703,-0.8857 3.1191,-0.8857c0.4902,0 1.043,0.1162 1.6543,0.3477c0.2676,0.0977 0.4609,0.1475 0.5801,0.1475s0.2227,-0.0244 0.3125,-0.0742c0.0898,-0.0488 0.2383,-0.1895 0.4473,-0.4209l0.2754,0l0,-0.0001z"/>
   </g>
  </g>
  <g id="svg_28">
   <defs>
    <polygon points="112.0947,55.9727 127.3574,55.9727 127.3574,38.1016 112.0947,38.1016 112.0947,55.9727   " id="SVGID_15_"/>
   </defs>
   <clipPath id="SVGID_16_">
    <use id="svg_29" xlink:href="#SVGID_15_"/>
   </clipPath>
   <g id="svg_30" clip-path="url(#SVGID_16_)">
    <path id="svg_31" d="m119.7158,41.8325l3.9795,0l-0.082,0.2734c-0.5117,0.0049 -0.8711,0.0967 -1.0801,0.2764s-0.4277,0.6611 -0.6563,1.4434l-1.2813,4.4082c-0.2441,0.832 -0.4902,1.4668 -0.7383,1.9053c-0.333,0.5908 -0.7813,1.0605 -1.3447,1.4102c-0.5645,0.3496 -1.1963,0.5244 -1.8975,0.5244c-0.5762,0 -1.0186,-0.1318 -1.3262,-0.3955c-0.3076,-0.2627 -0.4619,-0.582 -0.4619,-0.9561c0,-0.2949 0.0928,-0.541 0.2793,-0.7383s0.4082,-0.2959 0.667,-0.2959c0.2236,0 0.4063,0.0674 0.5479,0.2002s0.2119,0.2949 0.2119,0.4873c0,0.1572 -0.0645,0.3096 -0.1934,0.457c-0.1641,0.1875 -0.2461,0.3154 -0.2461,0.3848c0,0.1025 0.0469,0.1963 0.1416,0.2803s0.2207,0.125 0.3799,0.125c0.2285,0 0.4658,-0.0537 0.7119,-0.1621s0.4775,-0.2734 0.6934,-0.4941c0.2158,-0.2217 0.4053,-0.4873 0.5664,-0.7979s0.3262,-0.7334 0.4951,-1.2705l0.3652,-1.2773l1.1104,-3.7949c0.1641,-0.5557 0.2461,-0.9033 0.2461,-1.041c0,-0.1865 -0.0742,-0.3398 -0.2236,-0.458c-0.1484,-0.1182 -0.4639,-0.1914 -0.9463,-0.2207l0.0821,-0.2736z"/>
   </g>
  </g>
  <g id="svg_32">
   <defs>
    <polygon points="40.3662,78.606 52.8672,78.606 52.8672,62.1177 40.3662,62.1177 40.3662,78.606   " id="SVGID_17_"/>
   </defs>
   <clipPath id="SVGID_18_">
    <use id="svg_33" xlink:href="#SVGID_17_"/>
   </clipPath>
   <g id="svg_34" clip-path="url(#SVGID_18_)">
    <path id="svg_35" d="m47.1323,75.5854l-0.082,0.2734l-4.1631,0l0.1045,-0.2734c0.418,-0.0098 0.6938,-0.0439 0.8281,-0.1025c0.2188,-0.084 0.3804,-0.2002 0.4849,-0.3477c0.1641,-0.2314 0.333,-0.6445 0.5073,-1.2402l1.7607,-6.0371c0.1489,-0.502 0.2236,-0.8809 0.2236,-1.1367c0,-0.1279 -0.0322,-0.2363 -0.0967,-0.3252c-0.0649,-0.0889 -0.1631,-0.1563 -0.2949,-0.2031s-0.3892,-0.0693 -0.772,-0.0693l0.0894,-0.2734l3.9092,0l-0.082,0.2734c-0.3184,-0.0049 -0.5547,0.0293 -0.709,0.1025c-0.2236,0.0986 -0.394,0.2393 -0.5107,0.4209c-0.1172,0.1826 -0.2676,0.5859 -0.4512,1.2109l-1.7534,6.0371c-0.1592,0.5566 -0.2388,0.9111 -0.2388,1.0635c0,0.123 0.0313,0.2275 0.0933,0.3135s0.1616,0.1523 0.2983,0.1992s0.4219,0.085 0.8545,0.1142z"/>
   </g>
  </g>
  <polygon id="svg_36" points="  71.0518,20.1475 14.1084,101.8442 127.9941,101.8442 75.5352,26.5801 71.0518,20.1475 " stroke-miterlimit="8" stroke-linejoin="round" stroke-linecap="round" stroke-width="0.75" stroke="#000000" fill="none"/>
  <polyline id="svg_37" points="  71.0518,20.1475 72.9565,27.2075 93.1172,101.9126 " stroke-miterlimit="8" stroke-linejoin="round" stroke-linecap="round" stroke-width="0.75" stroke="#000000" fill="none"/>
  <line id="svg_38" y2="52.5522" x2="110.8877" y1="20.1475" x1="71.0518" stroke-miterlimit="8" stroke-linejoin="round" stroke-linecap="round" stroke-width="0.75" stroke="#CC761F" fill="none"/>
  <line id="svg_39" y2="101.8442" x2="52.7842" y1="69.7583" x1="52.7842" stroke-miterlimit="8" stroke-linecap="round" stroke-width="0.75" stroke="#000000" fill="none"/>
  <line id="svg_40" y2="101.8442" x2="111.0059" y1="52.6475" x1="111.0059" stroke-miterlimit="8" stroke-linecap="round" stroke-width="0.75" stroke="#000000" fill="none"/>
  <polygon id="svg_41" points="110.9639,95.6431   110.8877,101.5542 116.8076,101.6304 116.8799,95.7192 110.9639,95.6431 " stroke-miterlimit="8" stroke-linecap="round" stroke-width="0.75" stroke="#000000" fill="none"/>
  <line id="svg_42" y2="101.4712" x2="92.998" y1="69.9653" x1="52.7842" stroke-miterlimit="8" stroke-linejoin="round" stroke-linecap="round" stroke-width="0.75" stroke="#CC761F" fill="none"/>
  <g id="svg_43">
   <line id="svg_44" y2="104.4751" x2="34.4678" y1="98.8071" x1="34.6289" stroke-miterlimit="10" stroke-linejoin="round" stroke-linecap="round" stroke-width="0.75" stroke="#000000" fill="none"/>
   <line id="svg_45" y2="104.3745" x2="31.8438" y1="98.7065" x1="32.0078" stroke-miterlimit="10" stroke-linejoin="round" stroke-linecap="round" stroke-width="0.75" stroke="#000000" fill="none"/>
  </g>
  <g id="svg_46">
   <line id="svg_47" y2="104.5972" x2="72.3662" y1="98.9292" x1="72.5273" stroke-miterlimit="10" stroke-linejoin="round" stroke-linecap="round" stroke-width="0.75" stroke="#000000" fill="none"/>
   <line id="svg_48" y2="104.4966" x2="69.7422" y1="98.8286" x1="69.9063" stroke-miterlimit="10" stroke-linejoin="round" stroke-linecap="round" stroke-width="0.75" stroke="#000000" fill="none"/>
  </g>
  <line id="svg_49" y2="104.5972" x2="121.5107" y1="98.9292" x1="121.6719" stroke-miterlimit="10" stroke-linejoin="round" stroke-linecap="round" stroke-width="0.75" stroke="#000000" fill="none"/>
  <line id="svg_50" y2="104.3052" x2="103.2061" y1="98.6372" x1="103.3701" stroke-miterlimit="10" stroke-linejoin="round" stroke-linecap="round" stroke-width="0.75" stroke="#000000" fill="none"/>
  <line id="svg_51" y2="101.4712" x2="92.998" y1="52.5522" x1="110.8877" stroke-miterlimit="8" stroke-linejoin="round" stroke-linecap="round" stroke-width="0.75" stroke="#CC761F" fill="none"/>
  <line id="svg_52" y2="69.7583" x2="52.7842" y1="20.1475" x1="71.0518" stroke-miterlimit="8" stroke-linejoin="round" stroke-linecap="round" stroke-width="0.75" stroke="#CC761F" fill="none"/>
  <g id="svg_53">
   <line id="svg_54" y2="53.8218" x2="86.4844" y1="55.2954" x1="81.1191" stroke-miterlimit="8" stroke-linecap="round" stroke-width="0.75" stroke="#000000" fill="none"/>
   <line id="svg_55" y2="58.959" x2="87.9609" y1="53.8218" x1="86.4844" stroke-miterlimit="8" stroke-linecap="round" stroke-width="0.75" stroke="#000000" fill="none"/>
  </g>
  <line id="svg_56" y2="52.6475" x2="111.0059" y1="69.7583" x1="52.7842" stroke-miterlimit="8" stroke-linejoin="round" stroke-linecap="round" stroke-width="0.75" stroke="#CC761F" fill="none"/>
  <polygon id="svg_57" points="52.8604,95.6431   52.7842,101.5542 58.7041,101.6304 58.7764,95.7192 52.8604,95.6431 " stroke-miterlimit="8" stroke-linecap="round" stroke-width="0.75" stroke="#000000" fill="none"/>
  <g id="svg_58"/>
  <g id="svg_59"/>
  <g id="svg_60"/>
  <g id="svg_61"/>
  <g id="svg_62"/>
  <g id="svg_63"/>
 </g>
</svg>