<svg width="134.775" height="141.481" xmlns="http://www.w3.org/2000/svg" xmlns:xlink="http://www.w3.org/1999/xlink" xml:space="preserve" enable-background="new 0 0 134.775 141.481" version="1.1">
 <g>
  <title>Layer 1</title>
  <line id="svg_1" y2="124.786" x2="32.71" y1="124.786" x1="101.61" stroke-miterlimit="8" stroke-linejoin="round" stroke-width="0.75" stroke="#CC761F" fill="none"/>
  <path id="svg_2" d="m67.387,0.375c-37.012,0 -67.012,29.973 -67.012,66.95s30,66.948 67.012,66.948s67.013,-29.971 67.013,-66.948s-30.001,-66.95 -67.013,-66.95l0,0z" stroke-miterlimit="8" stroke-linejoin="round" stroke-linecap="round" stroke-width="0.75" stroke="#010202" fill="none"/>
  <line id="svg_3" y2="22.476" x2="116.314" y1="22.476" x1="17.942" stroke-miterlimit="8" stroke-linejoin="round" stroke-width="0.75" stroke="#010202" fill="none"/>
  <line id="svg_4" y2="124.786" x2="32.71" y1="22.476" x1="17.942" stroke-miterlimit="8" stroke-linejoin="round" stroke-width="0.75" stroke="#010202" fill="none"/>
  <line id="svg_5" y2="124.786" x2="101.61" y1="22.476" x1="116.314" stroke-miterlimit="8" stroke-linejoin="round" stroke-width="0.75" stroke="#010202" fill="none"/>
  <line id="svg_6" y2="22.476" x2="116.314" y1="124.786" x1="32.71" stroke-miterlimit="8" stroke-linejoin="round" stroke-width="0.75" stroke="#010202" fill="none"/>
  <g id="svg_7">
   <g id="svg_8">
    <defs>
     <rect height="16.69" width="15.12" y="124.786" x="17.942" id="SVGID_1_"/>
    </defs>
    <clipPath id="SVGID_00000050634313318495897980000004592725040020541062_">
     <use id="svg_9" overflow="visible" xlink:href="#SVGID_1_"/>
    </clipPath>
    <g id="svg_10" clip-path="url(#SVGID_00000050634313318495897980000004592725040020541062_)">
     <g id="svg_11">
      <path id="svg_12" d="m29.442,128.336l-0.76,8.43c-0.04,0.39 -0.06,0.65 -0.06,0.78c0,0.2 0.04,0.35 0.11,0.46c0.09,0.14 0.22,0.25 0.38,0.32c0.16,0.07 0.43,0.1 0.81,0.1l-0.08,0.28l-3.94,0l0.08,-0.28l0.17,0c0.32,0 0.58,-0.07 0.78,-0.21c0.14,-0.09 0.25,-0.25 0.33,-0.47c0.05,-0.15 0.11,-0.52 0.15,-1.09l0.12,-1.29l-2.87,0l-1.02,1.4c-0.23,0.31 -0.38,0.54 -0.44,0.68c-0.06,0.14 -0.09,0.27 -0.09,0.39c0,0.16 0.06,0.3 0.19,0.41c0.13,0.12 0.34,0.18 0.64,0.19l-0.08,0.28l-2.96,0l0.08,-0.28c0.36,-0.01 0.69,-0.14 0.96,-0.37c0.28,-0.23 0.69,-0.73 1.24,-1.48l5.98,-8.24l0.26,0l0.02,-0.01zm-1.46,2.49l-2.9,4l2.52,0l0.38,-4z"/>
     </g>
    </g>
   </g>
  </g>
  <g id="svg_13">
   <g id="svg_14">
    <defs>
     <rect height="16.7" width="15.12" y="6.121" x="2.822" id="SVGID_00000080175524982941076600000014439383272062259383_"/>
    </defs>
    <clipPath id="SVGID_00000118382624296880910190000005036139926624612007_">
     <use id="svg_15" overflow="visible" xlink:href="#SVGID_00000080175524982941076600000014439383272062259383_"/>
    </clipPath>
    <g id="svg_16" clip-path="url(#SVGID_00000118382624296880910190000005036139926624612007_)">
     <g id="svg_17">
      <path id="svg_18" d="m8.032,10.171l0.1,-0.28l3.57,0c0.6,0 1.14,0.09 1.61,0.28c0.47,0.19 0.82,0.45 1.06,0.79s0.35,0.7 0.35,1.08c0,0.58 -0.21,1.11 -0.62,1.58s-1.09,0.82 -2.03,1.04c0.61,0.23 1.05,0.53 1.34,0.91c0.29,0.38 0.43,0.79 0.43,1.25c0,0.5 -0.13,0.98 -0.38,1.44c-0.26,0.46 -0.58,0.82 -0.99,1.07c-0.4,0.25 -0.89,0.44 -1.45,0.56c-0.4,0.09 -1.03,0.13 -1.89,0.13l-3.67,0l0.1,-0.28c0.38,0 0.65,-0.05 0.78,-0.11c0.2,-0.09 0.34,-0.2 0.42,-0.34c0.12,-0.19 0.28,-0.62 0.47,-1.3l1.79,-6.14c0.15,-0.52 0.23,-0.88 0.23,-1.09c0,-0.18 -0.07,-0.33 -0.2,-0.44s-0.39,-0.16 -0.77,-0.16c-0.08,0 -0.16,0 -0.24,0l-0.01,0.01zm0.04,9.2c0.53,0.07 0.95,0.1 1.25,0.1c0.77,0 1.45,-0.23 2.04,-0.7c0.59,-0.47 0.89,-1.1 0.89,-1.91c0,-0.61 -0.18,-1.09 -0.55,-1.44s-0.96,-0.52 -1.78,-0.52c-0.16,0 -0.35,0 -0.58,0.02l-1.28,4.43l0.01,0.02zm1.46,-4.99c0.32,0 0.55,0.02 0.69,0.02c1.02,0 1.79,-0.23 2.29,-0.68c0.5,-0.45 0.75,-1.01 0.75,-1.69c0,-0.51 -0.15,-0.91 -0.46,-1.2s-0.79,-0.43 -1.46,-0.43c-0.18,0 -0.4,0.03 -0.68,0.09c0,0 -1.13,3.89 -1.13,3.89z"/>
     </g>
    </g>
   </g>
  </g>
  <g id="svg_19">
   <g id="svg_20">
    <defs>
     <rect height="18.08" width="16.51" y="5.431" x="116.314" id="SVGID_00000112612822306893268590000012543657069445159359_"/>
    </defs>
    <clipPath id="SVGID_00000108292124999615192270000008443351349560549562_">
     <use id="svg_21" overflow="visible" xlink:href="#SVGID_00000112612822306893268590000012543657069445159359_"/>
    </clipPath>
    <g id="svg_22" clip-path="url(#SVGID_00000108292124999615192270000008443351349560549562_)">
     <g id="svg_23">
      <path id="svg_24" d="m129.034,8.991l-0.75,3.28l-0.27,0l-0.03,-0.82c-0.02,-0.3 -0.08,-0.56 -0.17,-0.8s-0.22,-0.44 -0.4,-0.61s-0.4,-0.31 -0.67,-0.4c-0.27,-0.1 -0.57,-0.15 -0.9,-0.15c-0.88,0 -1.65,0.24 -2.31,0.73c-0.84,0.62 -1.5,1.5 -1.98,2.64c-0.39,0.94 -0.59,1.88 -0.59,2.85s0.28,1.76 0.85,2.35s1.3,0.88 2.21,0.88c0.68,0 1.29,-0.15 1.83,-0.46c0.53,-0.31 1.03,-0.78 1.49,-1.43l0.35,0c-0.54,0.87 -1.14,1.51 -1.8,1.92s-1.45,0.62 -2.37,0.62c-0.82,0 -1.54,-0.17 -2.17,-0.52s-1.11,-0.83 -1.44,-1.46c-0.33,-0.63 -0.5,-1.3 -0.5,-2.02c0,-1.11 0.29,-2.18 0.88,-3.23s1.39,-1.87 2.41,-2.46c1.02,-0.59 2.05,-0.9 3.09,-0.9c0.49,0 1.03,0.12 1.64,0.35c0.27,0.1 0.46,0.15 0.58,0.15c0.12,0 0.22,-0.02 0.31,-0.07c0.09,-0.05 0.24,-0.19 0.44,-0.43l0.27,0l0,-0.01z"/>
     </g>
    </g>
   </g>
  </g>
  <g id="svg_25">
   <g id="svg_26">
    <defs>
     <rect height="16.7" width="16.51" y="124.781" x="99.804" id="SVGID_00000040542487883848902350000006824439364183167658_"/>
    </defs>
    <clipPath id="SVGID_00000179640181660430750830000004542688342377221523_">
     <use id="svg_27" overflow="visible" xlink:href="#SVGID_00000040542487883848902350000006824439364183167658_"/>
    </clipPath>
    <g id="svg_28" clip-path="url(#SVGID_00000179640181660430750830000004542688342377221523_)">
     <g id="svg_29">
      <path id="svg_30" d="m104.984,128.841l0.09,-0.28l3.2,0c1.35,0 2.36,0.16 3.01,0.47s1.17,0.81 1.56,1.48c0.39,0.67 0.58,1.4 0.58,2.17c0,0.66 -0.11,1.31 -0.34,1.93c-0.22,0.63 -0.48,1.13 -0.76,1.5c-0.28,0.38 -0.72,0.79 -1.3,1.25c-0.59,0.45 -1.22,0.79 -1.91,1c-0.69,0.21 -1.54,0.33 -2.56,0.33l-4.24,0l0.1,-0.28c0.39,0 0.65,-0.04 0.78,-0.1c0.2,-0.09 0.34,-0.2 0.44,-0.34c0.14,-0.21 0.3,-0.63 0.48,-1.26l1.77,-6.13c0.14,-0.48 0.21,-0.86 0.21,-1.14c0,-0.19 -0.06,-0.34 -0.19,-0.45c-0.13,-0.1 -0.38,-0.16 -0.75,-0.16l-0.16,0l-0.01,0.01zm2.62,0.28l-2.17,7.59c-0.16,0.57 -0.24,0.92 -0.24,1.05c0,0.08 0.03,0.16 0.08,0.23c0.05,0.07 0.12,0.12 0.21,0.15c0.13,0.04 0.33,0.07 0.62,0.07c0.77,0 1.49,-0.08 2.15,-0.24s1.21,-0.4 1.63,-0.72c0.6,-0.46 1.08,-1.1 1.44,-1.91c0.36,-0.81 0.54,-1.74 0.54,-2.77c0,-1.17 -0.28,-2.04 -0.83,-2.61c-0.55,-0.57 -1.36,-0.86 -2.42,-0.86c-0.26,0 -0.6,0.01 -1.01,0.03c0,0 0,-0.01 0,-0.01z"/>
     </g>
    </g>
   </g>
  </g>
 </g>
</svg>