<svg width="150.584" height="155.6535" xmlns="http://www.w3.org/2000/svg" xmlns:xlink="http://www.w3.org/1999/xlink" xml:space="preserve" enable-background="new 0 0 150.584 155.6535" version="1.1">
 <g>
  <title>Layer 1</title>
  <line id="svg_1" y2="131.2275" x2="75.585" y1="16.6965" x1="75.585" stroke-miterlimit="8" stroke-linejoin="round" stroke-linecap="round" stroke-width="0.75" stroke="#0D0F0F" fill="none"/>
  <g id="svg_2">
   <g id="svg_3">
    <g id="svg_4">
     <g id="svg_5">
      <g id="svg_6">
       <g id="svg_7">
        <g id="svg_8">
         <g id="svg_9">
          <g id="svg_10">
           <g id="svg_11">
            <g id="svg_12">
             <g id="svg_13">
              <g id="svg_14">
               <g id="svg_15">
                <g id="svg_16">
                 <g id="svg_17">
                  <g id="svg_18">
                   <g id="svg_19">
                    <g id="svg_20">
                     <g id="svg_21">
                      <g id="svg_22">
                       <defs>
                        <rect height="16.697" width="15.125" y="17.4245" x="59.4485" id="SVGID_1_"/>
                       </defs>
                       <clipPath id="SVGID_00000041265401376569248820000012818661880205342652_">
                        <use id="svg_23" overflow="visible" xlink:href="#SVGID_1_"/>
                       </clipPath>
                       <g id="svg_24" clip-path="url(#SVGID_00000041265401376569248820000012818661880205342652_)">
                        <g id="svg_25" enable-background="new    ">
                         <path id="svg_26" d="m67.3165,21.7484l-1.1445,4.0059l0.938,0c0.6694,0 1.1543,-0.1035 1.4546,-0.3105c0.3003,-0.2061 0.5591,-0.5889 0.7759,-1.1475l0.2729,0l-1.0264,3.6777l-0.2954,0c0.0884,-0.3086 0.1328,-0.5732 0.1328,-0.792c0,-0.2148 -0.043,-0.3867 -0.1294,-0.5156c-0.0859,-0.1299 -0.2041,-0.2256 -0.3545,-0.2881c-0.1499,-0.0625 -0.4663,-0.0938 -0.9487,-0.0938l-0.9526,0l-0.9673,3.3564c-0.0938,0.3232 -0.1406,0.5703 -0.1406,0.7393c0,0.1299 0.0615,0.2441 0.1846,0.3438c0.084,0.0703 0.293,0.1055 0.6279,0.1055l0.8862,0c0.96,0 1.729,-0.1719 2.3076,-0.5156c0.5786,-0.3447 1.0967,-0.9424 1.5547,-1.7939l0.2734,0l-0.9453,2.8174l-7.7397,0l0.0962,-0.2764c0.3838,-0.0098 0.6426,-0.0449 0.7754,-0.1045c0.1968,-0.0898 0.3398,-0.2041 0.4282,-0.3438c0.1328,-0.2051 0.2905,-0.6328 0.4727,-1.2861l1.7578,-6.1133c0.1377,-0.4932 0.2065,-0.8691 0.2065,-1.1279c0,-0.1895 -0.0654,-0.3379 -0.1958,-0.4453c-0.1304,-0.1064 -0.3853,-0.1602 -0.7642,-0.1602l-0.1553,0l0.0889,-0.2773l7.1929,0l-0.6201,2.4443l-0.2734,0c0.0342,-0.2295 0.0518,-0.4209 0.0518,-0.5752c0,-0.2646 -0.064,-0.4863 -0.1919,-0.665c-0.1675,-0.2295 -0.4111,-0.4043 -0.7314,-0.5234c-0.2363,-0.0898 -0.7803,-0.1348 -1.6318,-0.1348l-1.2707,-0.0001l0,0z"/>
                        </g>
                       </g>
                      </g>
                     </g>
                    </g>
                   </g>
                  </g>
                 </g>
                </g>
               </g>
              </g>
             </g>
            </g>
           </g>
          </g>
         </g>
        </g>
       </g>
      </g>
     </g>
    </g>
   </g>
  </g>
  <g id="svg_27">
   <line id="svg_28" y2="24.3865" x2="83.7496" y1="16.6965" x1="83.7496" stroke-miterlimit="10" stroke-linejoin="round" stroke-linecap="round" stroke-width="0.75" stroke="#000000" fill="none"/>
   <line id="svg_29" y2="24.3865" x2="76.0626" y1="24.3865" x1="83.7496" stroke-miterlimit="10" stroke-linejoin="round" stroke-linecap="round" stroke-width="0.75" stroke="#000000" fill="none"/>
  </g>
  <line id="svg_30" y2="16.6965" x2="36.29" y1="16.6965" x1="114.425" stroke-miterlimit="8" stroke-linejoin="round" stroke-linecap="round" stroke-width="0.75" stroke="#CC761F" fill="none"/>
  <polyline id="svg_31" points="  36.29,16.6965 20.739,131.2275 129.975,131.2275 114.425,16.6965 " stroke-miterlimit="8" stroke-linejoin="round" stroke-linecap="round" stroke-width="0.75" stroke="#0D0F0F" fill="none"/>
  <line id="svg_32" y2="80.2725" x2="75.585" y1="16.6965" x1="36.484" stroke-miterlimit="8" stroke-linejoin="round" stroke-linecap="round" stroke-width="0.75" stroke="#0D0F0F" fill="none"/>
  <line id="svg_33" y2="80.2725" x2="75.585" y1="131.2275" x1="20.739" stroke-miterlimit="8" stroke-linejoin="round" stroke-linecap="round" stroke-width="0.75" stroke="#0D0F0F" fill="none"/>
  <line id="svg_34" y2="131.2275" x2="114.426" y1="16.6965" x1="114.426" stroke-miterlimit="8" stroke-linejoin="round" stroke-linecap="round" stroke-width="0.75" stroke="#0D0F0F" fill="none"/>
  <line id="svg_35" y2="16.6965" x2="114.425" y1="80.2725" x1="75.585" stroke-miterlimit="8" stroke-linejoin="round" stroke-linecap="round" stroke-width="0.75" stroke="#0D0F0F" fill="none"/>
  <line id="svg_36" y2="131.2275" x2="129.975" y1="80.2725" x1="75.585" stroke-miterlimit="8" stroke-linejoin="round" stroke-linecap="round" stroke-width="0.75" stroke="#0D0F0F" fill="none"/>
  <g id="svg_37">
   <g id="svg_38">
    <g id="svg_39">
     <g id="svg_40">
      <g id="svg_41">
       <g id="svg_42">
        <g id="svg_43">
         <g id="svg_44">
          <g id="svg_45">
           <g id="svg_46">
            <g id="svg_47">
             <g id="svg_48">
              <g id="svg_49">
               <g id="svg_50">
                <g id="svg_51">
                 <g id="svg_52">
                  <g id="svg_53">
                   <g id="svg_54">
                    <g id="svg_55">
                     <g id="svg_56">
                      <defs>
                       <rect height="16.694" width="15.125" y="0.0025" x="21.359" id="SVGID_00000078046062597234482250000016130392621495686331_"/>
                      </defs>
                      <clipPath id="SVGID_00000124841550205018305260000003493710333254654641_">
                       <use id="svg_57" overflow="visible" xlink:href="#SVGID_00000078046062597234482250000016130392621495686331_"/>
                      </clipPath>
                      <g id="svg_58" clip-path="url(#SVGID_00000124841550205018305260000003493710333254654641_)">
                       <g id="svg_59" enable-background="new    ">
                        <path id="svg_60" d="m32.8633,3.5504l-0.7607,8.4307c-0.0396,0.3936 -0.0591,0.6523 -0.0591,0.7773c0,0.1992 0.0366,0.3506 0.1108,0.4561c0.0933,0.1445 0.2202,0.251 0.3804,0.3213c0.1597,0.0693 0.4292,0.1045 0.8086,0.1045l-0.0811,0.2764l-3.9443,0l0.0815,-0.2764l0.1699,0c0.3198,0 0.5806,-0.0703 0.7827,-0.209c0.1426,-0.0947 0.2534,-0.252 0.3325,-0.4717c0.0542,-0.1543 0.1055,-0.5176 0.1548,-1.0908l0.1182,-1.2852l-2.8657,0l-1.019,1.3975c-0.2314,0.3135 -0.3765,0.5391 -0.4355,0.6758c-0.0591,0.1377 -0.0889,0.2656 -0.0889,0.3857c0,0.1592 0.064,0.2959 0.1919,0.4102c0.1284,0.1152 0.3398,0.1777 0.6353,0.1875l-0.0811,0.2764l-2.9619,0l0.0815,-0.2764c0.3643,-0.0146 0.6855,-0.1387 0.9639,-0.3701c0.2778,-0.2314 0.6929,-0.7266 1.2441,-1.4834l5.9824,-8.2363l0.2588,-0.0001l0,0zm-1.4624,2.4884l-2.9028,3.999l2.5186,0l0.3842,-3.999z"/>
                       </g>
                      </g>
                     </g>
                    </g>
                   </g>
                  </g>
                 </g>
                </g>
               </g>
              </g>
             </g>
            </g>
           </g>
          </g>
         </g>
        </g>
       </g>
      </g>
     </g>
    </g>
   </g>
  </g>
  <g id="svg_61">
   <g id="svg_62">
    <g id="svg_63">
     <g id="svg_64">
      <g id="svg_65">
       <g id="svg_66">
        <g id="svg_67">
         <g id="svg_68">
          <g id="svg_69">
           <g id="svg_70">
            <g id="svg_71">
             <g id="svg_72">
              <g id="svg_73">
               <g id="svg_74">
                <g id="svg_75">
                 <g id="svg_76">
                  <g id="svg_77">
                   <g id="svg_78">
                    <g id="svg_79">
                     <g id="svg_80">
                      <g id="svg_81">
                       <defs>
                        <rect height="16.695" width="15.124" y="131.0652" x="5.615" id="SVGID_00000066505876308384452620000016323979947440155524_"/>
                       </defs>
                       <clipPath id="SVGID_00000029006060898140907010000010500022618712568721_">
                        <use id="svg_82" overflow="visible" xlink:href="#SVGID_00000066505876308384452620000016323979947440155524_"/>
                       </clipPath>
                       <g id="svg_83" clip-path="url(#SVGID_00000029006060898140907010000010500022618712568721_)">
                        <g id="svg_84" enable-background="new    ">
                         <path id="svg_85" d="m10.8167,135.1201l0.103,-0.2773l3.5747,0c0.6006,0 1.1357,0.0947 1.606,0.2842s0.8223,0.4541 1.0562,0.793s0.3506,0.6973 0.3506,1.0762c0,0.583 -0.208,1.1094 -0.624,1.5801s-1.0942,0.8184 -2.0342,1.042c0.6055,0.2305 1.0508,0.5342 1.3364,0.9121c0.2856,0.3789 0.4282,0.7949 0.4282,1.248c0,0.5039 -0.1279,0.9844 -0.3838,1.4424c-0.2563,0.459 -0.585,0.8154 -0.9858,1.0693c-0.4014,0.2539 -0.8853,0.4404 -1.4512,0.5605c-0.4038,0.085 -1.0342,0.127 -1.8906,0.127l-3.6704,0l0.0962,-0.2764c0.3838,-0.0098 0.645,-0.0479 0.7827,-0.1123c0.1968,-0.085 0.3369,-0.1963 0.4209,-0.3359c0.1182,-0.1895 0.2759,-0.623 0.4727,-1.3008l1.7944,-6.1357c0.1528,-0.5186 0.229,-0.8818 0.229,-1.0908c0,-0.1846 -0.0679,-0.3301 -0.2031,-0.4375s-0.3926,-0.1611 -0.7715,-0.1611c-0.0841,-0.0001 -0.1627,-0.0021 -0.2364,-0.007zm0.0439,9.2002c0.5317,0.0693 0.9478,0.1045 1.248,0.1045c0.7681,0 1.4487,-0.2344 2.042,-0.7031c0.5933,-0.4678 0.8901,-1.1035 0.8901,-1.9053c0,-0.6133 -0.1836,-1.0918 -0.5503,-1.4355s-0.959,-0.5156 -1.7759,-0.5156c-0.1577,0 -0.3496,0.0078 -0.5762,0.0225l-1.2777,4.4325zm1.4551,-4.9932c0.3198,0.0098 0.5513,0.0156 0.6943,0.0156c1.0239,0 1.7856,-0.2266 2.2856,-0.6768c0.4995,-0.4512 0.7495,-1.0146 0.7495,-1.6924c0,-0.5137 -0.1528,-0.9131 -0.458,-1.2002c-0.3052,-0.2861 -0.7925,-0.4297 -1.4624,-0.4297c-0.1772,0 -0.4033,0.0303 -0.6792,0.0898l-1.1298,3.8937z"/>
                        </g>
                       </g>
                      </g>
                     </g>
                    </g>
                   </g>
                  </g>
                 </g>
                </g>
               </g>
              </g>
             </g>
            </g>
           </g>
          </g>
         </g>
        </g>
       </g>
      </g>
     </g>
    </g>
   </g>
  </g>
  <g id="svg_86">
   <g id="svg_87">
    <g id="svg_88">
     <g id="svg_89">
      <g id="svg_90">
       <g id="svg_91">
        <g id="svg_92">
         <g id="svg_93">
          <g id="svg_94">
           <g id="svg_95">
            <g id="svg_96">
             <g id="svg_97">
              <g id="svg_98">
               <g id="svg_99">
                <g id="svg_100">
                 <g id="svg_101">
                  <g id="svg_102">
                   <g id="svg_103">
                    <g id="svg_104">
                     <g id="svg_105">
                      <g id="svg_106">
                       <defs>
                        <rect height="18.079" width="16.51" y="130.3733" x="127.467" id="SVGID_00000106844147852783943850000005414891583835941777_"/>
                       </defs>
                       <clipPath id="SVGID_00000101787886685985256470000005322619242877257107_">
                        <use id="svg_107" overflow="visible" xlink:href="#SVGID_00000106844147852783943850000005414891583835941777_"/>
                       </clipPath>
                       <g id="svg_108" clip-path="url(#SVGID_00000101787886685985256470000005322619242877257107_)">
                        <g id="svg_109" enable-background="new    ">
                         <path id="svg_110" d="m140.1881,133.9291l-0.7466,3.2793l-0.2656,0l-0.0298,-0.8223c-0.0249,-0.2988 -0.0811,-0.5645 -0.1699,-0.7988c-0.0888,-0.2343 -0.2217,-0.4375 -0.3989,-0.6084c-0.1772,-0.1719 -0.4014,-0.3066 -0.6724,-0.4033c-0.271,-0.0977 -0.5713,-0.1465 -0.9014,-0.1465c-0.8818,0 -1.6528,0.2441 -2.3125,0.7324c-0.8423,0.6221 -1.5024,1.501 -1.9805,2.6367c-0.394,0.9355 -0.5908,1.8848 -0.5908,2.8457c0,0.9805 0.2832,1.7637 0.8496,2.3486c0.5664,0.5849 1.3027,0.8779 2.209,0.8779c0.6846,0 1.2944,-0.1543 1.8286,-0.4639c0.5347,-0.3086 1.0308,-0.7842 1.4888,-1.4258l0.3477,0c-0.542,0.8711 -1.1431,1.5117 -1.8027,1.9229c-0.6602,0.4111 -1.4507,0.6162 -2.3721,0.6162c-0.8174,0 -1.5415,-0.1729 -2.1719,-0.5186c-0.6309,-0.3467 -1.1108,-0.833 -1.4409,-1.4609c-0.3301,-0.627 -0.4951,-1.3018 -0.4951,-2.0234c0,-1.1055 0.293,-2.1816 0.8794,-3.2266c0.5859,-1.0459 1.3901,-1.8672 2.4121,-2.4648s2.0527,-0.8965 3.0923,-0.8965c0.4878,0 1.0342,0.1172 1.6401,0.3506c0.2661,0.0996 0.458,0.1494 0.5762,0.1494s0.2217,-0.0244 0.3105,-0.0742c0.0884,-0.0498 0.2363,-0.1914 0.4434,-0.4258l0.2734,0.0001l0,0z"/>
                        </g>
                       </g>
                      </g>
                     </g>
                    </g>
                   </g>
                  </g>
                 </g>
                </g>
               </g>
              </g>
             </g>
            </g>
           </g>
          </g>
         </g>
        </g>
       </g>
      </g>
     </g>
    </g>
   </g>
  </g>
  <g id="svg_111">
   <g id="svg_112">
    <g id="svg_113">
     <g id="svg_114">
      <g id="svg_115">
       <g id="svg_116">
        <g id="svg_117">
         <g id="svg_118">
          <g id="svg_119">
           <g id="svg_120">
            <g id="svg_121">
             <g id="svg_122">
              <g id="svg_123">
               <g id="svg_124">
                <g id="svg_125">
                 <g id="svg_126">
                  <g id="svg_127">
                   <g id="svg_128">
                    <g id="svg_129">
                     <g id="svg_130">
                      <g id="svg_131">
                       <defs>
                        <rect height="16.699" width="16.507" x="114.425" id="SVGID_00000180342941144595518680000000934411283168543890_"/>
                       </defs>
                       <clipPath id="SVGID_00000019656476293303162570000017330789510882776499_">
                        <use id="svg_132" overflow="visible" xlink:href="#SVGID_00000180342941144595518680000000934411283168543890_"/>
                       </clipPath>
                       <g id="svg_133" clip-path="url(#SVGID_00000019656476293303162570000017330789510882776499_)">
                        <g id="svg_134" enable-background="new    ">
                         <path id="svg_135" d="m119.6062,4.0554l0.0889,-0.2773l3.1987,0c1.3545,0 2.3579,0.1572 3.0107,0.4717c0.6523,0.3135 1.1733,0.8076 1.5625,1.4834c0.3892,0.6748 0.5835,1.3984 0.5835,2.1709c0,0.6621 -0.1118,1.3066 -0.3359,1.9316c-0.2241,0.626 -0.478,1.126 -0.7612,1.502c-0.2832,0.377 -0.7178,0.792 -1.3037,1.2451c-0.5864,0.4531 -1.2217,0.7881 -1.9062,1.0049s-1.5391,0.3252 -2.5635,0.3252l-4.2407,0l0.0962,-0.2764c0.3887,-0.0098 0.6499,-0.0449 0.7832,-0.1045c0.1968,-0.085 0.3423,-0.1992 0.4355,-0.3438c0.1431,-0.21 0.3032,-0.6309 0.4805,-1.2637l1.7729,-6.1279c0.1377,-0.4834 0.207,-0.8623 0.207,-1.1357c0,-0.1943 -0.064,-0.3447 -0.1924,-0.4492c-0.1279,-0.1045 -0.3794,-0.1562 -0.7534,-0.1562l-0.1626,-0.0001l0,0zm2.6226,0.2832l-2.1719,7.5859c-0.1626,0.5684 -0.2437,0.9199 -0.2437,1.0537c0,0.0801 0.0259,0.1572 0.0776,0.2324c0.0518,0.0742 0.1216,0.124 0.2104,0.1494c0.1279,0.0449 0.335,0.0674 0.6206,0.0674c0.7729,0 1.4912,-0.0811 2.1533,-0.2432c0.6626,-0.1621 1.2056,-0.4023 1.6294,-0.7217c0.6006,-0.4629 1.0811,-1.1006 1.4404,-1.9131s0.5396,-1.7363 0.5396,-2.7725c0,-1.1709 -0.2759,-2.042 -0.8276,-2.6123s-1.3569,-0.8555 -2.416,-0.8555c-0.2607,0.0002 -0.5981,0.01 -1.0121,0.0295z"/>
                        </g>
                       </g>
                      </g>
                     </g>
                    </g>
                   </g>
                  </g>
                 </g>
                </g>
               </g>
              </g>
             </g>
            </g>
           </g>
          </g>
         </g>
        </g>
       </g>
      </g>
     </g>
    </g>
   </g>
  </g>
  <g id="svg_136">
   <g id="svg_137">
    <g id="svg_138">
     <g id="svg_139">
      <g id="svg_140">
       <g id="svg_141">
        <g id="svg_142">
         <g id="svg_143">
          <g id="svg_144">
           <g id="svg_145">
            <g id="svg_146">
             <g id="svg_147">
              <g id="svg_148">
               <g id="svg_149">
                <g id="svg_150">
                 <g id="svg_151">
                  <g id="svg_152">
                   <g id="svg_153">
                    <g id="svg_154">
                     <g id="svg_155">
                      <g id="svg_156">
                       <defs>
                        <rect height="16.697" width="16.507" y="131.0642" x="67.3315" id="SVGID_00000122712785379668404580000005774559685910280074_"/>
                       </defs>
                       <clipPath id="SVGID_00000018936119379574722600000013598068999966646176_">
                        <use id="svg_157" overflow="visible" xlink:href="#SVGID_00000122712785379668404580000005774559685910280074_"/>
                       </clipPath>
                       <g id="svg_158" clip-path="url(#SVGID_00000018936119379574722600000013598068999966646176_)">
                        <g id="svg_159" enable-background="new    ">
                         <path id="svg_160" d="m75.2301,135.3863l-1.1821,4.0137l1.3149,0c0.5913,0 1.0332,-0.0918 1.3262,-0.2764s0.5947,-0.5781 0.9053,-1.1816l0.2808,0l-1.042,3.6924l-0.2954,0c0.0737,-0.2988 0.1108,-0.5449 0.1108,-0.7393c0,-0.3037 -0.0996,-0.54 -0.2993,-0.707c-0.1992,-0.166 -0.5723,-0.25 -1.1191,-0.25l-1.3301,0l-0.8716,3.0566c-0.1577,0.543 -0.2363,0.9043 -0.2363,1.084c0,0.1846 0.0674,0.3262 0.2031,0.4258c0.1353,0.0996 0.4668,0.167 0.9937,0.2021l-0.0889,0.2764l-3.96,0l0.0962,-0.2764c0.3843,-0.0098 0.6401,-0.0449 0.7686,-0.1045c0.1968,-0.085 0.3423,-0.1992 0.4355,-0.3438c0.1333,-0.2051 0.2905,-0.626 0.4731,-1.2637l1.7656,-6.1055c0.1426,-0.4932 0.2144,-0.8799 0.2144,-1.1582c0,-0.1299 -0.0322,-0.2412 -0.0962,-0.333s-0.1587,-0.1611 -0.2842,-0.2061c-0.126,-0.0439 -0.376,-0.0664 -0.75,-0.0664l0.0884,-0.2773l7.7725,0l-0.7388,2.5645l-0.2808,0c0.0537,-0.3096 0.0811,-0.5635 0.0811,-0.7627c0,-0.3291 -0.0898,-0.5889 -0.2695,-0.7812c-0.1802,-0.1914 -0.4102,-0.3271 -0.6909,-0.4072c-0.1968,-0.0498 -0.6377,-0.0752 -1.3223,-0.0752l-1.9727,0l0,0l0,0z"/>
                        </g>
                       </g>
                      </g>
                     </g>
                    </g>
                   </g>
                  </g>
                 </g>
                </g>
               </g>
              </g>
             </g>
            </g>
           </g>
          </g>
         </g>
        </g>
       </g>
      </g>
     </g>
    </g>
   </g>
  </g>
  <g id="svg_161">
   <g id="svg_162">
    <g id="svg_163">
     <g id="svg_164">
      <g id="svg_165">
       <g id="svg_166">
        <g id="svg_167">
         <g id="svg_168">
          <g id="svg_169">
           <g id="svg_170">
            <g id="svg_171">
             <g id="svg_172">
              <g id="svg_173">
               <g id="svg_174">
                <g id="svg_175">
                 <g id="svg_176">
                  <g id="svg_177">
                   <g id="svg_178">
                    <g id="svg_179">
                     <g id="svg_180">
                      <g id="svg_181">
                       <defs>
                        <rect height="16.697" width="19.2" y="131.0642" x="98.748" id="SVGID_00000160896349014377149000000003427512132370022066_"/>
                       </defs>
                       <clipPath id="SVGID_00000072265362912953051740000008219178349880719779_">
                        <use id="svg_182" overflow="visible" xlink:href="#SVGID_00000160896349014377149000000003427512132370022066_"/>
                       </clipPath>
                       <g id="svg_183" clip-path="url(#SVGID_00000072265362912953051740000008219178349880719779_)">
                        <g id="svg_184" enable-background="new    ">
                         <path id="svg_185" d="m105.4242,139.3648l4.6113,0l0.7295,-2.5029c0.1372,-0.4883 0.2061,-0.8672 0.2061,-1.1357c0,-0.1299 -0.0308,-0.2412 -0.0918,-0.333c-0.0615,-0.0918 -0.1562,-0.1611 -0.2837,-0.2061c-0.1279,-0.0439 -0.3784,-0.0664 -0.7515,-0.0664l0.0737,-0.2773l4.022,0l-0.0884,0.2773c-0.3389,-0.0049 -0.5918,0.0293 -0.7588,0.1045c-0.2358,0.1045 -0.4102,0.2393 -0.5229,0.4033c-0.1621,0.2344 -0.3267,0.6455 -0.4937,1.2334l-1.7603,6.1211c-0.1475,0.5078 -0.2212,0.8721 -0.2212,1.0908c0,0.1895 0.0649,0.333 0.1953,0.4297c0.1299,0.0977 0.4404,0.1631 0.9316,0.1982l-0.0811,0.2764l-3.8892,0l0.103,-0.2764c0.3833,-0.0098 0.6382,-0.0449 0.7661,-0.1045c0.1963,-0.0898 0.3389,-0.2041 0.4272,-0.3438c0.1274,-0.1943 0.2847,-0.6182 0.4712,-1.2705l0.8989,-3.1025l-4.6333,0l-0.9062,3.1025c-0.1426,0.498 -0.2134,0.8613 -0.2134,1.0908c0,0.1895 0.0635,0.333 0.1914,0.4297c0.1274,0.0977 0.437,0.1631 0.9282,0.1982l-0.0591,0.2764l-3.9189,0l0.0957,-0.2764c0.3882,-0.0098 0.646,-0.0449 0.7739,-0.1045c0.1963,-0.0898 0.3408,-0.2041 0.4346,-0.3438c0.1274,-0.2051 0.2847,-0.6279 0.4712,-1.2705l1.7681,-6.1211c0.1421,-0.498 0.2134,-0.877 0.2134,-1.1357c0,-0.1299 -0.0308,-0.2412 -0.0918,-0.333c-0.0615,-0.0918 -0.1572,-0.1611 -0.2876,-0.2061c-0.1299,-0.0439 -0.3843,-0.0664 -0.7622,-0.0664l0.0884,-0.2773l3.9409,0l-0.0811,0.2773c-0.3291,-0.0049 -0.5723,0.0293 -0.729,0.1045c-0.231,0.0996 -0.4004,0.2314 -0.5083,0.3955c-0.1475,0.2197 -0.3096,0.6328 -0.4863,1.2412l-0.7219,2.5031z"/>
                        </g>
                       </g>
                      </g>
                     </g>
                    </g>
                   </g>
                  </g>
                 </g>
                </g>
               </g>
              </g>
             </g>
            </g>
           </g>
          </g>
         </g>
        </g>
       </g>
      </g>
     </g>
    </g>
   </g>
  </g>
  <g id="svg_186">
   <g id="svg_187">
    <g id="svg_188">
     <g id="svg_189">
      <g id="svg_190">
       <g id="svg_191">
        <g id="svg_192">
         <g id="svg_193">
          <g id="svg_194">
           <g id="svg_195">
            <g id="svg_196">
             <g id="svg_197">
              <g id="svg_198">
               <g id="svg_199">
                <g id="svg_200">
                 <g id="svg_201">
                  <g id="svg_202">
                   <g id="svg_203">
                    <g id="svg_204">
                     <g id="svg_205">
                      <g id="svg_206">
                       <g id="svg_207">
                        <defs>
                         <rect height="18.146" width="16.511" y="70.546" x="56.9698" id="SVGID_00000013913455996501046740000001123998673292272304_"/>
                        </defs>
                        <clipPath id="SVGID_00000119114480997477592330000012520287908206402195_">
                         <use id="svg_208" overflow="visible" xlink:href="#SVGID_00000013913455996501046740000001123998673292272304_"/>
                        </clipPath>
                        <g id="svg_209" clip-path="url(#SVGID_00000119114480997477592330000012520287908206402195_)">
                         <g id="svg_210" enable-background="new    ">
                          <path id="svg_211" d="m66.4943,74.1039c0.665,0 1.2534,0.1465 1.7656,0.4395c0.5122,0.292 0.9136,0.7246 1.2046,1.2969c0.2905,0.5723 0.4355,1.166 0.4355,1.7803c0,1.0898 -0.3115,2.2334 -0.9346,3.4297c-0.623,1.1973 -1.437,2.1113 -2.4414,2.7412c-1.0049,0.6299 -2.0444,0.9443 -3.1182,0.9443c-0.7729,0 -1.4194,-0.1738 -1.939,-0.5215c-0.52,-0.3467 -0.9043,-0.8057 -1.1528,-1.375c-0.2485,-0.5703 -0.373,-1.1221 -0.373,-1.6572c0,-0.9502 0.2251,-1.8887 0.6758,-2.8154s0.9888,-1.7021 1.6147,-2.3242c0.625,-0.6221 1.2925,-1.1006 2.002,-1.4355c0.7095,-0.335 1.4629,-0.5031 2.2608,-0.5031zm-0.251,0.4805c-0.4927,0 -0.9741,0.124 -1.4443,0.3711c-0.4707,0.2471 -0.9375,0.6523 -1.4004,1.2148c-0.4629,0.5615 -0.8789,1.2979 -1.2485,2.208c-0.4531,1.1191 -0.6797,2.1768 -0.6797,3.1709c0,0.71 0.1797,1.3379 0.5396,1.8857c0.3594,0.5469 0.9111,0.8213 1.6548,0.8213c0.4482,0 0.8877,-0.1133 1.3188,-0.3379c0.4307,-0.2246 0.8804,-0.6094 1.3481,-1.1543c0.5864,-0.6846 1.0786,-1.5586 1.4775,-2.6201c0.3989,-1.0625 0.5986,-2.0537 0.5986,-2.9727c0,-0.6797 -0.1797,-1.2812 -0.5396,-1.8037c-0.3593,-0.5224 -0.9013,-0.7831 -1.6249,-0.7831z"/>
                         </g>
                        </g>
                       </g>
                      </g>
                     </g>
                    </g>
                   </g>
                  </g>
                 </g>
                </g>
               </g>
              </g>
             </g>
            </g>
           </g>
          </g>
         </g>
        </g>
       </g>
      </g>
     </g>
    </g>
   </g>
  </g>
  <g id="svg_212">
   <g id="svg_213">
    <g id="svg_214">
     <g id="svg_215">
      <g id="svg_216">
       <g id="svg_217">
        <g id="svg_218">
         <g id="svg_219">
          <g id="svg_220">
           <g id="svg_221">
            <g id="svg_222">
             <g id="svg_223">
              <g id="svg_224">
               <g id="svg_225">
                <g id="svg_226">
                 <g id="svg_227">
                  <g id="svg_228">
                   <g id="svg_229">
                    <g id="svg_230">
                     <g id="svg_231">
                      <g id="svg_232">
                       <defs>
                        <rect height="16.697" width="13.743" y="40.136" x="74.8285" id="SVGID_00000176762815383930351240000002550061606783811975_"/>
                       </defs>
                       <clipPath id="SVGID_00000063631824948082172300000016084691924285553536_">
                        <use id="svg_233" overflow="visible" xlink:href="#SVGID_00000176762815383930351240000002550061606783811975_"/>
                       </clipPath>
                       <g id="svg_234" clip-path="url(#SVGID_00000063631824948082172300000016084691924285553536_)">
                        <g id="svg_235" enable-background="new    ">
                         <path id="svg_236" d="m81.1559,43.1199c0.167,0.2891 0.2827,0.5596 0.3467,0.8105c0.064,0.252 0.1279,0.7461 0.1919,1.4834l0.3247,3.6777c0.2954,-0.3594 0.7236,-0.9268 1.2847,-1.7041c0.2705,-0.3789 0.6055,-0.8945 1.0039,-1.5469c0.2412,-0.3994 0.3887,-0.6777 0.4429,-0.8379c0.0298,-0.0791 0.0444,-0.1611 0.0444,-0.2461c0,-0.0547 -0.0171,-0.0996 -0.0518,-0.1348s-0.1245,-0.0762 -0.2695,-0.123c-0.145,-0.0479 -0.2656,-0.1348 -0.3613,-0.2617c-0.0962,-0.127 -0.144,-0.2725 -0.144,-0.4375c0,-0.2041 0.0591,-0.3682 0.1772,-0.4932c0.1177,-0.124 0.2656,-0.1865 0.4429,-0.1865c0.2163,0 0.4009,0.0908 0.5537,0.2725c0.1523,0.1816 0.2285,0.4326 0.2285,0.751c0,0.3936 -0.1328,0.8438 -0.3984,1.3496c-0.2656,0.5058 -0.7778,1.2812 -1.5356,2.3281c-0.7578,1.0459 -1.6758,2.1865 -2.7534,3.4229c-0.7432,0.8516 -1.2944,1.3887 -1.6533,1.6104c-0.3594,0.2217 -0.667,0.333 -0.9229,0.333c-0.1523,0 -0.2866,-0.0586 -0.4023,-0.1758c-0.1157,-0.1172 -0.1733,-0.2529 -0.1733,-0.4072c0,-0.1943 0.0801,-0.3711 0.2397,-0.5312c0.1602,-0.1592 0.3335,-0.2393 0.5205,-0.2393c0.0986,0 0.1797,0.0225 0.2437,0.0674c0.0391,0.0254 0.0825,0.0967 0.1289,0.2129c0.0469,0.1172 0.0898,0.1963 0.1294,0.2363c0.0244,0.0244 0.0542,0.0371 0.0884,0.0371c0.0298,0 0.0815,-0.0254 0.1553,-0.0752c0.2705,-0.1689 0.5854,-0.4385 0.9448,-0.8066c0.4722,-0.4883 0.8218,-0.8867 1.0483,-1.1963l-0.4136,-4.7383c-0.0688,-0.7822 -0.1724,-1.2578 -0.3101,-1.4277c-0.1377,-0.1689 -0.3691,-0.2539 -0.6938,-0.2539c-0.1035,0 -0.2881,0.0146 -0.5537,0.0449l-0.0664,-0.2764l2.1629,-0.5381z"/>
                        </g>
                       </g>
                      </g>
                     </g>
                    </g>
                   </g>
                  </g>
                 </g>
                </g>
               </g>
              </g>
             </g>
            </g>
           </g>
          </g>
         </g>
        </g>
       </g>
      </g>
     </g>
    </g>
   </g>
  </g>
  <g id="svg_237">
   <g id="svg_238">
    <g id="svg_239">
     <g id="svg_240">
      <g id="svg_241">
       <g id="svg_242">
        <g id="svg_243">
         <g id="svg_244">
          <g id="svg_245">
           <g id="svg_246">
            <g id="svg_247">
             <g id="svg_248">
              <g id="svg_249">
               <g id="svg_250">
                <g id="svg_251">
                 <g id="svg_252">
                  <g id="svg_253">
                   <g id="svg_254">
                    <g id="svg_255">
                     <g id="svg_256">
                      <g id="svg_257">
                       <defs>
                        <rect height="13.869" width="12.354" y="15.872" x="88.828" id="SVGID_00000070834995528181059400000001424955322512188603_"/>
                       </defs>
                       <clipPath id="SVGID_00000167357581682101224220000003029488177815677339_">
                        <use id="svg_258" overflow="visible" xlink:href="#SVGID_00000070834995528181059400000001424955322512188603_"/>
                       </clipPath>
                       <g id="svg_259" clip-path="url(#SVGID_00000167357581682101224220000003029488177815677339_)">
                        <g id="svg_260" enable-background="new    ">
                         <path id="svg_261" d="m94.6713,18.84c0.2407,0.2578 0.4229,0.5166 0.5459,0.7744c0.0884,0.1787 0.2334,0.6484 0.4351,1.4082l0.6494,-0.9834c0.1724,-0.2383 0.3813,-0.4658 0.627,-0.6816c0.2461,-0.2158 0.4624,-0.3643 0.6494,-0.4434c0.1182,-0.0498 0.2485,-0.0742 0.3911,-0.0742c0.2114,0 0.3799,0.0566 0.5054,0.1709s0.188,0.2529 0.188,0.417c0,0.1895 -0.0366,0.3184 -0.1108,0.3877c-0.1377,0.124 -0.2949,0.1865 -0.4722,0.1865c-0.103,0 -0.2139,-0.0225 -0.332,-0.0674c-0.231,-0.0791 -0.3857,-0.1191 -0.4644,-0.1191c-0.1182,0 -0.2583,0.0693 -0.4209,0.209c-0.3047,0.2578 -0.6689,0.7568 -1.0918,1.4971l0.605,2.5625c0.0933,0.3926 0.1724,0.627 0.2363,0.7041c0.0635,0.0771 0.1274,0.1152 0.1914,0.1152c0.1035,0 0.2241,-0.0576 0.3618,-0.1719c0.2705,-0.2275 0.5015,-0.5264 0.6934,-0.8936l0.2583,0.1338c-0.3101,0.5859 -0.7036,1.0732 -1.1807,1.46c-0.2705,0.2188 -0.499,0.3281 -0.686,0.3281c-0.2754,0 -0.4941,-0.1562 -0.6562,-0.4688c-0.1035,-0.1943 -0.3174,-1.0283 -0.6421,-2.5029c-0.7671,1.3457 -1.3823,2.2119 -1.8442,2.5996c-0.3003,0.248 -0.5903,0.3721 -0.8706,0.3721c-0.1968,0 -0.3765,-0.0723 -0.5386,-0.2158c-0.1182,-0.1094 -0.1772,-0.2559 -0.1772,-0.4395c0,-0.1641 0.0542,-0.3008 0.1626,-0.4102c0.1079,-0.1094 0.2407,-0.1641 0.3979,-0.1641c0.1577,0 0.3247,0.0801 0.502,0.2393c0.1279,0.1143 0.2261,0.1709 0.2949,0.1709c0.0591,0 0.1353,-0.04 0.229,-0.1191c0.231,-0.1885 0.5459,-0.5957 0.9443,-1.2217s0.6587,-1.0771 0.7817,-1.3555c-0.3047,-1.207 -0.4697,-1.8447 -0.4941,-1.915c-0.1133,-0.3223 -0.2607,-0.5508 -0.4429,-0.6846c-0.1816,-0.1348 -0.4497,-0.2012 -0.8042,-0.2012c-0.1128,0 -0.2432,0.0049 -0.3906,0.0146l0,-0.2686l1.9696,-0.3494z"/>
                        </g>
                       </g>
                      </g>
                     </g>
                    </g>
                   </g>
                  </g>
                 </g>
                </g>
               </g>
              </g>
             </g>
            </g>
           </g>
          </g>
         </g>
        </g>
       </g>
      </g>
     </g>
    </g>
   </g>
  </g>
  <g id="svg_262">
   <g id="svg_263">
    <g id="svg_264">
     <g id="svg_265">
      <g id="svg_266">
       <g id="svg_267">
        <g id="svg_268">
         <g id="svg_269">
          <g id="svg_270">
           <g id="svg_271">
            <g id="svg_272">
             <g id="svg_273">
              <g id="svg_274">
               <g id="svg_275">
                <g id="svg_276">
                 <g id="svg_277">
                  <g id="svg_278">
                   <g id="svg_279">
                    <g id="svg_280">
                     <g id="svg_281">
                      <defs>
                       <rect height="18.08" width="12.363" y="114.724" x="89.1072" id="SVGID_00000057127305794879308520000011507164648814666146_"/>
                      </defs>
                      <clipPath id="SVGID_00000152947744545891737600000007969290301454267567_">
                       <use id="svg_282" overflow="visible" xlink:href="#SVGID_00000057127305794879308520000011507164648814666146_"/>
                      </clipPath>
                      <g id="svg_283" clip-path="url(#SVGID_00000152947744545891737600000007969290301454267567_)">
                       <g id="svg_284" enable-background="new    ">
                        <path id="svg_285" d="m98.1519,118.2899l0,0.2764c-0.6494,0.0645 -1.1792,0.1953 -1.5898,0.3916c-0.4106,0.1973 -0.8164,0.4971 -1.2173,0.9004s-0.7329,0.8525 -0.9961,1.3477c-0.2632,0.4961 -0.4834,1.085 -0.6606,1.7666c0.7085,-0.4932 1.4194,-0.7393 2.1323,-0.7393c0.6836,0 1.2764,0.2793 1.7783,0.8369c0.5015,0.5576 0.7524,1.2744 0.7524,2.1504c0,0.8467 -0.2534,1.6191 -0.7598,2.3154c-0.6099,0.8467 -1.4165,1.2705 -2.4199,1.2705c-0.6841,0 -1.2642,-0.2295 -1.7412,-0.6875c-0.9346,-0.8916 -1.4019,-2.0469 -1.4019,-3.4658c0,-0.9062 0.1792,-1.7676 0.5386,-2.584c0.3589,-0.8164 0.8716,-1.541 1.5381,-2.1738c0.6665,-0.6318 1.3047,-1.0576 1.9146,-1.2773c0.6099,-0.2188 1.1782,-0.3281 1.7046,-0.3281l0.4277,0l0,-0.0001l0,0zm-4.5888,5.2276c-0.0889,0.6729 -0.1328,1.2158 -0.1328,1.6289c0,0.4775 0.0869,0.9971 0.2617,1.5576c0.1743,0.5596 0.4341,1.0039 0.7783,1.333c0.251,0.2344 0.5557,0.3506 0.915,0.3506c0.4277,0 0.8101,-0.2041 1.147,-0.6123s0.5059,-0.9912 0.5059,-1.748c0,-0.8516 -0.1675,-1.5879 -0.502,-2.2109c-0.3345,-0.6221 -0.8091,-0.9336 -1.4238,-0.9336c-0.187,0 -0.3877,0.04 -0.6016,0.1201c-0.2139,0.079 -0.5298,0.2509 -0.9477,0.5146z"/>
                       </g>
                      </g>
                     </g>
                    </g>
                   </g>
                  </g>
                 </g>
                </g>
               </g>
              </g>
             </g>
            </g>
           </g>
          </g>
         </g>
        </g>
       </g>
      </g>
     </g>
    </g>
   </g>
  </g>
  <g id="svg_286">
   <g id="svg_287">
    <g id="svg_288">
     <g id="svg_289">
      <g id="svg_290">
       <g id="svg_291">
        <g id="svg_292">
         <g id="svg_293">
          <g id="svg_294">
           <g id="svg_295">
            <g id="svg_296">
             <g id="svg_297">
              <g id="svg_298">
               <g id="svg_299">
                <g id="svg_300">
                 <g id="svg_301">
                  <g id="svg_302">
                   <g id="svg_303">
                    <g id="svg_304">
                     <g id="svg_305">
                      <defs>
                       <rect height="18.08" width="12.355" y="84.8035" x="98.748" id="SVGID_00000029749950986647778280000014016992729114031283_"/>
                      </defs>
                      <clipPath id="SVGID_00000142898346081780860450000001307877587402472103_">
                       <use id="svg_306" overflow="visible" xlink:href="#SVGID_00000029749950986647778280000014016992729114031283_"/>
                      </clipPath>
                      <g id="svg_307" clip-path="url(#SVGID_00000142898346081780860450000001307877587402472103_)">
                       <g id="svg_308" enable-background="new    ">
                        <path id="svg_309" d="m103.4535,93.6033c-0.792,-0.6572 -1.3022,-1.1846 -1.5308,-1.583s-0.3433,-0.8115 -0.3433,-1.2402c0,-0.6572 0.251,-1.2236 0.7529,-1.6992c0.5015,-0.4756 1.168,-0.7129 1.999,-0.7129c0.8066,0 1.4561,0.2217 1.9478,0.6641c0.4922,0.4434 0.7383,0.9492 0.7383,1.5166c0,0.3789 -0.1328,0.7646 -0.3984,1.1572c-0.2656,0.3936 -0.8193,0.8574 -1.6602,1.3896c0.8657,0.6777 1.4385,1.21 1.7188,1.5986c0.374,0.5078 0.561,1.043 0.561,1.6055c0,0.7119 -0.2681,1.3213 -0.8042,1.8262c-0.5361,0.5059 -1.2397,0.7588 -2.1104,0.7588c-0.9492,0 -1.6895,-0.3018 -2.2207,-0.9043c-0.4229,-0.4824 -0.6343,-1.0107 -0.6343,-1.583c0,-0.4482 0.1484,-0.8926 0.4463,-1.334c0.2975,-0.4405 0.8102,-0.9268 1.5382,-1.46zm0.3467,0.2842c-0.4082,0.3486 -0.7104,0.7285 -0.9072,1.1387c-0.1968,0.4111 -0.2949,0.8555 -0.2949,1.333c0,0.6426 0.1733,1.1572 0.52,1.543s0.7881,0.5791 1.3242,0.5791c0.5312,0 0.9565,-0.1523 1.2764,-0.4561s0.4795,-0.6719 0.4795,-1.1055c0,-0.3584 -0.0933,-0.6797 -0.2803,-0.9639c-0.3491,-0.5273 -1.0552,-1.2167 -2.1177,-2.0683zm0.812,-1.083c0.5898,-0.5381 0.9639,-0.9629 1.1211,-1.2734c0.1577,-0.3115 0.2363,-0.6641 0.2363,-1.0576c0,-0.5225 -0.145,-0.9316 -0.4355,-1.2285c-0.29,-0.2959 -0.686,-0.4443 -1.1875,-0.4443c-0.502,0 -0.9102,0.1475 -1.2251,0.4404c-0.3145,0.2939 -0.4722,0.6377 -0.4722,1.0312c0,0.2588 0.0654,0.5176 0.1958,0.7764c0.1299,0.2598 0.3159,0.5059 0.5571,0.7402l1.21,1.0156z"/>
                       </g>
                      </g>
                     </g>
                    </g>
                   </g>
                  </g>
                 </g>
                </g>
               </g>
              </g>
             </g>
            </g>
           </g>
          </g>
         </g>
        </g>
       </g>
      </g>
     </g>
    </g>
   </g>
  </g>
  <g id="svg_310">
   <g id="svg_311">
    <g id="svg_312">
     <g id="svg_313">
      <g id="svg_314">
       <g id="svg_315">
        <g id="svg_316">
         <g id="svg_317">
          <defs>
           <rect height="16.56" width="19.251" y="63.992" x="122.6785" id="SVGID_00000096745284376979331830000010327691095637481601_"/>
          </defs>
          <clipPath id="SVGID_00000005954761495593775100000016117110868562662288_">
           <use id="svg_318" overflow="visible" xlink:href="#SVGID_00000096745284376979331830000010327691095637481601_"/>
          </clipPath>
          <g id="svg_319" clip-path="url(#SVGID_00000005954761495593775100000016117110868562662288_)">
           <path id="svg_320" d="m125.3062,68.7246l2.4375,-1.1934l0.2437,0l0,8.4873c0,0.5635 0.0234,0.9141 0.0703,1.0527c0.0464,0.1377 0.1436,0.2441 0.2915,0.3184s0.4478,0.1162 0.9009,0.126l0,0.2744l-3.7666,0l0,-0.2744c0.4727,-0.0098 0.7778,-0.0508 0.916,-0.1221c0.1377,-0.0713 0.2339,-0.168 0.2881,-0.2891c0.0542,-0.1211 0.0811,-0.4834 0.0811,-1.0859l0,-5.4258c0,-0.7314 -0.0244,-1.2002 -0.0737,-1.4082c-0.0347,-0.1582 -0.0972,-0.2744 -0.1885,-0.3486c-0.0913,-0.0742 -0.2007,-0.1113 -0.3286,-0.1113c-0.1821,0 -0.4355,0.0771 -0.7607,0.2305l-0.111,-0.2305z"/>
           <path id="svg_321" d="m138.0318,75.8554l-0.7017,1.9346l-5.9081,0l0,-0.2744c1.7378,-1.5908 2.9614,-2.8906 3.6704,-3.8984c0.709,-1.0078 1.0635,-1.9297 1.0635,-2.7646c0,-0.6377 -0.1943,-1.1611 -0.5835,-1.5713c-0.3887,-0.4102 -0.854,-0.6152 -1.396,-0.6152c-0.4922,0 -0.9341,0.1445 -1.3257,0.4336c-0.3911,0.2891 -0.6807,0.7129 -0.8677,1.2705l-0.2734,0c0.123,-0.9141 0.4395,-1.6152 0.9492,-2.1045c0.5097,-0.4893 1.146,-0.7344 1.9092,-0.7344c0.8125,0 1.4907,0.2627 2.0347,0.7861c0.544,0.5234 0.8164,1.1416 0.8164,1.8525c0,0.5098 -0.1182,1.0186 -0.3545,1.5273c-0.3647,0.8008 -0.9556,1.6484 -1.7729,2.542c-1.2256,1.3447 -1.9917,2.1553 -2.2969,2.4316l2.6147,0c0.5317,0 0.9048,-0.0195 1.1187,-0.0596c0.2144,-0.0391 0.4077,-0.1191 0.5801,-0.2402c0.1724,-0.1211 0.3223,-0.293 0.4502,-0.5156l0.2733,0z"/>
          </g>
         </g>
        </g>
       </g>
      </g>
     </g>
    </g>
   </g>
  </g>
  <g id="svg_322">
   <g id="svg_323">
    <g id="svg_324">
     <g id="svg_325">
      <g id="svg_326">
       <g id="svg_327">
        <g id="svg_328">
         <g id="svg_329">
          <g id="svg_330">
           <g id="svg_331">
            <g id="svg_332">
             <g id="svg_333">
              <g id="svg_334">
               <g id="svg_335">
                <g id="svg_336">
                 <g id="svg_337">
                  <g id="svg_338">
                   <g id="svg_339">
                    <g id="svg_340">
                     <g id="svg_341">
                      <defs>
                       <rect height="18.08" width="12.363" y="131.0268" x="41.9805" id="SVGID_00000057148627627889761500000009450976195800588974_"/>
                      </defs>
                      <clipPath id="SVGID_00000031926363961599673030000003714324535293657519_">
                       <use id="svg_342" overflow="visible" xlink:href="#SVGID_00000057148627627889761500000009450976195800588974_"/>
                      </clipPath>
                      <g id="svg_343" clip-path="url(#SVGID_00000031926363961599673030000003714324535293657519_)">
                       <g id="svg_344" enable-background="new    ">
                        <path id="svg_345" d="m51.0252,134.5927l0,0.2764c-0.6494,0.0645 -1.1792,0.1953 -1.5898,0.3916c-0.4106,0.1973 -0.8164,0.4971 -1.2173,0.9004s-0.7329,0.8525 -0.9961,1.3477c-0.2632,0.4961 -0.4834,1.085 -0.6606,1.7666c0.7085,-0.4932 1.4194,-0.7393 2.1323,-0.7393c0.6836,0 1.2764,0.2793 1.7783,0.8369c0.5015,0.5576 0.7524,1.2744 0.7524,2.1504c0,0.8467 -0.2534,1.6191 -0.7598,2.3154c-0.6099,0.8467 -1.4165,1.2705 -2.4199,1.2705c-0.6841,0 -1.2642,-0.2295 -1.7412,-0.6875c-0.9346,-0.8916 -1.4019,-2.0469 -1.4019,-3.4658c0,-0.9062 0.1792,-1.7676 0.5386,-2.584c0.3589,-0.8164 0.8716,-1.541 1.5381,-2.1738c0.6665,-0.6318 1.3047,-1.0576 1.9146,-1.2773c0.6099,-0.2188 1.1782,-0.3281 1.7046,-0.3281l0.4277,0l0,-0.0001l0,0zm-4.5888,5.2276c-0.0889,0.6729 -0.1328,1.2158 -0.1328,1.6289c0,0.4775 0.0869,0.9971 0.2617,1.5576c0.1743,0.5596 0.4341,1.0039 0.7783,1.333c0.251,0.2344 0.5557,0.3506 0.915,0.3506c0.4277,0 0.8101,-0.2041 1.147,-0.6123s0.5059,-0.9912 0.5059,-1.748c0,-0.8516 -0.1675,-1.5879 -0.502,-2.2109c-0.3345,-0.6221 -0.8091,-0.9336 -1.4238,-0.9336c-0.187,0 -0.3877,0.04 -0.6016,0.1201c-0.2139,0.079 -0.5298,0.251 -0.9477,0.5146z"/>
                       </g>
                      </g>
                     </g>
                    </g>
                   </g>
                  </g>
                 </g>
                </g>
               </g>
              </g>
             </g>
            </g>
           </g>
          </g>
         </g>
        </g>
       </g>
      </g>
     </g>
    </g>
   </g>
  </g>
  <g id="svg_346">
   <g id="svg_347">
    <g id="svg_348">
     <g id="svg_349">
      <g id="svg_350">
       <g id="svg_351">
        <g id="svg_352">
         <g id="svg_353">
          <g id="svg_354">
           <g id="svg_355">
            <g id="svg_356">
             <g id="svg_357">
              <g id="svg_358">
               <g id="svg_359">
                <g id="svg_360">
                 <g id="svg_361">
                  <g id="svg_362">
                   <g id="svg_363">
                    <g id="svg_364">
                     <g id="svg_365">
                      <defs>
                       <rect height="18.08" width="12.355" y="85.9901" x="39.3145" id="SVGID_00000044171237726569201820000013454253426931423404_"/>
                      </defs>
                      <clipPath id="SVGID_00000088850438536757807090000006531389967754396291_">
                       <use id="svg_366" overflow="visible" xlink:href="#SVGID_00000044171237726569201820000013454253426931423404_"/>
                      </clipPath>
                      <g id="svg_367" clip-path="url(#SVGID_00000088850438536757807090000006531389967754396291_)">
                       <g id="svg_368" enable-background="new    ">
                        <path id="svg_369" d="m44.02,94.7899c-0.792,-0.6572 -1.3022,-1.1846 -1.5308,-1.583s-0.3433,-0.8115 -0.3433,-1.2402c0,-0.6572 0.251,-1.2236 0.7529,-1.6992c0.5015,-0.4756 1.168,-0.7129 1.999,-0.7129c0.8066,0 1.4561,0.2217 1.9478,0.6641c0.4922,0.4434 0.7383,0.9492 0.7383,1.5166c0,0.3789 -0.1328,0.7646 -0.3984,1.1572c-0.2656,0.3936 -0.8193,0.8574 -1.6602,1.3896c0.8657,0.6777 1.4385,1.21 1.7188,1.5986c0.374,0.5078 0.561,1.043 0.561,1.6055c0,0.7119 -0.2681,1.3213 -0.8042,1.8262c-0.5361,0.5059 -1.2397,0.7588 -2.1104,0.7588c-0.9492,0 -1.6895,-0.3018 -2.2207,-0.9043c-0.4229,-0.4824 -0.6343,-1.0107 -0.6343,-1.583c0,-0.4482 0.1484,-0.8926 0.4463,-1.334c0.2975,-0.4405 0.8102,-0.9268 1.5382,-1.46zm0.3467,0.2842c-0.4082,0.3486 -0.7104,0.7285 -0.9072,1.1387c-0.1968,0.4111 -0.2949,0.8555 -0.2949,1.333c0,0.6426 0.1733,1.1572 0.52,1.543s0.7881,0.5791 1.3242,0.5791c0.5312,0 0.9565,-0.1523 1.2764,-0.4561s0.4795,-0.6719 0.4795,-1.1055c0,-0.3584 -0.0933,-0.6797 -0.2803,-0.9639c-0.3491,-0.5273 -1.0552,-1.2167 -2.1177,-2.0683zm0.812,-1.083c0.5898,-0.5381 0.9639,-0.9629 1.1211,-1.2734c0.1577,-0.3115 0.2363,-0.6641 0.2363,-1.0576c0,-0.5225 -0.145,-0.9316 -0.4355,-1.2285c-0.29,-0.2959 -0.686,-0.4443 -1.1875,-0.4443c-0.502,0 -0.9102,0.1475 -1.2251,0.4404c-0.3145,0.2939 -0.4722,0.6377 -0.4722,1.0312c0,0.2588 0.0654,0.5176 0.1958,0.7764c0.1299,0.2598 0.3159,0.5059 0.5571,0.7402l1.21,1.0156z"/>
                       </g>
                      </g>
                     </g>
                    </g>
                   </g>
                  </g>
                 </g>
                </g>
               </g>
              </g>
             </g>
            </g>
           </g>
          </g>
         </g>
        </g>
       </g>
      </g>
     </g>
    </g>
   </g>
  </g>
  <g id="svg_370">
   <g id="svg_371">
    <g id="svg_372">
     <g id="svg_373">
      <g id="svg_374">
       <g id="svg_375">
        <g id="svg_376">
         <g id="svg_377">
          <g id="svg_378">
           <g id="svg_379">
            <g id="svg_380">
             <g id="svg_381">
              <g id="svg_382">
               <g id="svg_383">
                <g id="svg_384">
                 <g id="svg_385">
                  <g id="svg_386">
                   <g id="svg_387">
                    <g id="svg_388">
                     <g id="svg_389">
                      <defs>
                       <rect height="18.08" width="12.355" y="40.9534" x="41.9845" id="SVGID_00000090253775578492618960000009351040704819790251_"/>
                      </defs>
                      <clipPath id="SVGID_00000067959022451329834770000004342728256196888246_">
                       <use id="svg_390" overflow="visible" xlink:href="#SVGID_00000090253775578492618960000009351040704819790251_"/>
                      </clipPath>
                      <g id="svg_391" clip-path="url(#SVGID_00000067959022451329834770000004342728256196888246_)">
                       <g id="svg_392" enable-background="new    ">
                        <path id="svg_393" d="m46.69,49.7532c-0.792,-0.6572 -1.3022,-1.1846 -1.5308,-1.583s-0.3433,-0.8115 -0.3433,-1.2402c0,-0.6572 0.251,-1.2236 0.7529,-1.6992c0.5015,-0.4756 1.168,-0.7129 1.999,-0.7129c0.8066,0 1.4561,0.2217 1.9478,0.6641c0.4922,0.4434 0.7383,0.9492 0.7383,1.5166c0,0.3789 -0.1328,0.7646 -0.3984,1.1572c-0.2656,0.3936 -0.8193,0.8574 -1.6602,1.3896c0.8657,0.6777 1.4385,1.21 1.7188,1.5986c0.374,0.5078 0.561,1.043 0.561,1.6055c0,0.7119 -0.2681,1.3213 -0.8042,1.8262c-0.5361,0.5059 -1.2397,0.7588 -2.1104,0.7588c-0.9492,0 -1.6895,-0.3018 -2.2207,-0.9043c-0.4229,-0.4824 -0.6343,-1.0107 -0.6343,-1.583c0,-0.4482 0.1484,-0.8926 0.4463,-1.334c0.2975,-0.4406 0.8102,-0.9268 1.5382,-1.46zm0.3467,0.2841c-0.4082,0.3486 -0.7104,0.7285 -0.9072,1.1387c-0.1968,0.4111 -0.2949,0.8555 -0.2949,1.333c0,0.6426 0.1733,1.1572 0.52,1.543s0.7881,0.5791 1.3242,0.5791c0.5312,0 0.9565,-0.1523 1.2764,-0.4561s0.4795,-0.6719 0.4795,-1.1055c0,-0.3584 -0.0933,-0.6797 -0.2803,-0.9639c-0.3491,-0.5272 -1.0552,-1.2166 -2.1177,-2.0683zm0.812,-1.083c0.5898,-0.5381 0.9639,-0.9629 1.1211,-1.2734c0.1577,-0.3115 0.2363,-0.6641 0.2363,-1.0576c0,-0.5225 -0.145,-0.9316 -0.4355,-1.2285c-0.29,-0.2959 -0.686,-0.4443 -1.1875,-0.4443c-0.502,0 -0.9102,0.1475 -1.2251,0.4404c-0.3145,0.2939 -0.4722,0.6377 -0.4722,1.0312c0,0.2588 0.0654,0.5176 0.1958,0.7764c0.1299,0.2598 0.3159,0.5059 0.5571,0.7402l1.21,1.0156z"/>
                       </g>
                      </g>
                     </g>
                    </g>
                   </g>
                  </g>
                 </g>
                </g>
               </g>
              </g>
             </g>
            </g>
           </g>
          </g>
         </g>
        </g>
       </g>
      </g>
     </g>
    </g>
   </g>
  </g>
  <g id="svg_394">
   <g id="svg_395">
    <g id="svg_396">
     <g id="svg_397">
      <g id="svg_398">
       <g id="svg_399">
        <g id="svg_400">
         <g id="svg_401">
          <g id="svg_402">
           <g id="svg_403">
            <g id="svg_404">
             <g id="svg_405">
              <g id="svg_406">
               <g id="svg_407">
                <g id="svg_408">
                 <g id="svg_409">
                  <g id="svg_410">
                   <g id="svg_411">
                    <g id="svg_412">
                     <g id="svg_413">
                      <defs>
                       <rect height="18.08" width="12.355" y="44.4905" x="96.6025" id="SVGID_00000030454617393187965480000016782118766091122605_"/>
                      </defs>
                      <clipPath id="SVGID_00000003817052092362802250000000531432414649759147_">
                       <use id="svg_414" overflow="visible" xlink:href="#SVGID_00000030454617393187965480000016782118766091122605_"/>
                      </clipPath>
                      <g id="svg_415" clip-path="url(#SVGID_00000003817052092362802250000000531432414649759147_)">
                       <g id="svg_416" enable-background="new    ">
                        <path id="svg_417" d="m101.308,53.2903c-0.792,-0.6572 -1.3022,-1.1846 -1.5308,-1.583s-0.3433,-0.8115 -0.3433,-1.2402c0,-0.6572 0.251,-1.2236 0.7529,-1.6992c0.5015,-0.4756 1.168,-0.7129 1.999,-0.7129c0.8066,0 1.4561,0.2217 1.9478,0.6641c0.4922,0.4434 0.7383,0.9492 0.7383,1.5166c0,0.3789 -0.1328,0.7646 -0.3984,1.1572c-0.2656,0.3936 -0.8193,0.8574 -1.6602,1.3896c0.8657,0.6777 1.4385,1.21 1.7188,1.5986c0.374,0.5078 0.561,1.043 0.561,1.6055c0,0.7119 -0.2681,1.3213 -0.8042,1.8262c-0.5361,0.5059 -1.2397,0.7588 -2.1104,0.7588c-0.9492,0 -1.6895,-0.3018 -2.2207,-0.9043c-0.4229,-0.4824 -0.6343,-1.0107 -0.6343,-1.583c0,-0.4482 0.1484,-0.8926 0.4463,-1.334c0.2975,-0.4405 0.8102,-0.9268 1.5382,-1.46zm0.3467,0.2842c-0.4082,0.3486 -0.7104,0.7285 -0.9072,1.1387c-0.1968,0.4111 -0.2949,0.8555 -0.2949,1.333c0,0.6426 0.1733,1.1572 0.52,1.543s0.7881,0.5791 1.3242,0.5791c0.5312,0 0.9565,-0.1523 1.2764,-0.4561s0.4795,-0.6719 0.4795,-1.1055c0,-0.3584 -0.0933,-0.6797 -0.2803,-0.9639c-0.3491,-0.5273 -1.0552,-1.2167 -2.1177,-2.0683zm0.812,-1.083c0.5898,-0.5381 0.9639,-0.9629 1.1211,-1.2734c0.1577,-0.3115 0.2363,-0.6641 0.2363,-1.0576c0,-0.5225 -0.145,-0.9316 -0.4355,-1.2285c-0.29,-0.2959 -0.686,-0.4443 -1.1875,-0.4443c-0.502,0 -0.9102,0.1475 -1.2251,0.4404c-0.3145,0.2939 -0.4722,0.6377 -0.4722,1.0312c0,0.2588 0.0654,0.5176 0.1958,0.7764c0.1299,0.2598 0.3159,0.5059 0.5571,0.7402l1.21,1.0156z"/>
                       </g>
                      </g>
                     </g>
                    </g>
                   </g>
                  </g>
                 </g>
                </g>
               </g>
              </g>
             </g>
            </g>
           </g>
          </g>
         </g>
        </g>
       </g>
      </g>
     </g>
    </g>
   </g>
  </g>
  <g id="svg_418">
   <g id="svg_419">
    <g id="svg_420">
     <g id="svg_421">
      <g id="svg_422">
       <g id="svg_423">
        <g id="svg_424">
         <g id="svg_425">
          <defs>
           <rect height="16.56" width="19.251" y="63.992" x="9.6705" id="SVGID_00000124119722850670489470000002958092163464602264_"/>
          </defs>
          <clipPath id="SVGID_00000061449840298612533760000013818728864036081315_">
           <use id="svg_426" overflow="visible" xlink:href="#SVGID_00000124119722850670489470000002958092163464602264_"/>
          </clipPath>
          <g id="svg_427" clip-path="url(#SVGID_00000061449840298612533760000013818728864036081315_)">
           <path id="svg_428" d="m12.2982,68.7246l2.4375,-1.1934l0.2437,0l0,8.4873c0,0.5635 0.0234,0.9141 0.0703,1.0527c0.0464,0.1377 0.1436,0.2441 0.2915,0.3184s0.4478,0.1162 0.9009,0.126l0,0.2744l-3.7666,0l0,-0.2744c0.4727,-0.0098 0.7778,-0.0508 0.916,-0.1221c0.1377,-0.0713 0.2339,-0.168 0.2881,-0.2891s0.0811,-0.4834 0.0811,-1.0859l0,-5.4258c0,-0.7314 -0.0244,-1.2002 -0.0737,-1.4082c-0.0347,-0.1582 -0.0972,-0.2744 -0.1885,-0.3486s-0.2007,-0.1113 -0.3286,-0.1113c-0.1821,0 -0.4355,0.0771 -0.7607,0.2305l-0.111,-0.2305z"/>
           <path id="svg_429" d="m25.0238,75.8554l-0.7017,1.9346l-5.9081,0l0,-0.2744c1.7378,-1.5908 2.9614,-2.8906 3.6704,-3.8984s1.0635,-1.9297 1.0635,-2.7646c0,-0.6377 -0.1943,-1.1611 -0.5835,-1.5713c-0.3887,-0.4102 -0.854,-0.6152 -1.396,-0.6152c-0.4922,0 -0.9341,0.1445 -1.3257,0.4336c-0.3911,0.2891 -0.6807,0.7129 -0.8677,1.2705l-0.2734,0c0.123,-0.9141 0.4395,-1.6152 0.9492,-2.1045s1.146,-0.7344 1.9092,-0.7344c0.8125,0 1.4907,0.2627 2.0347,0.7861s0.8164,1.1416 0.8164,1.8525c0,0.5098 -0.1182,1.0186 -0.3545,1.5273c-0.3647,0.8008 -0.9556,1.6484 -1.7729,2.542c-1.2256,1.3447 -1.9917,2.1553 -2.2969,2.4316l2.6147,0c0.5317,0 0.9048,-0.0195 1.1187,-0.0596c0.2144,-0.0391 0.4077,-0.1191 0.5801,-0.2402s0.3223,-0.293 0.4502,-0.5156l0.2733,0z"/>
          </g>
         </g>
        </g>
       </g>
      </g>
     </g>
    </g>
   </g>
  </g>
  <g id="svg_430">
   <g id="svg_431">
    <defs>
     <rect height="22.8528" width="31.1328" y="100.9112" x="43.8407" id="SVGID_00000127039338823326685350000010059675746707564733_"/>
    </defs>
    <clipPath id="SVGID_00000049931334599821188780000012443232529884906665_">
     <use id="svg_432" overflow="visible" xlink:href="#SVGID_00000127039338823326685350000010059675746707564733_"/>
    </clipPath>
    <g id="svg_433" clip-path="url(#SVGID_00000049931334599821188780000012443232529884906665_)"/>
   </g>
   <g id="svg_434">
    <defs>
     <polygon points="43.7165,124.454 75.1805,124.454      75.1805,101.27 43.7165,101.27 43.7165,124.454    " id="SVGID_00000093137241865823536790000011377749918635938435_"/>
    </defs>
    <clipPath id="SVGID_00000152246321034745994400000008520121386086297998_">
     <use id="svg_435" overflow="visible" xlink:href="#SVGID_00000093137241865823536790000011377749918635938435_"/>
    </clipPath>
    <line id="svg_436" y2="114.3962" x2="55.8575" y1="115.2912" x1="54.3185" stroke-miterlimit="10" stroke-linecap="square" stroke-width="0" stroke="#000000" fill="none" clip-path="url(#SVGID_00000152246321034745994400000008520121386086297998_)"/>
    <line id="svg_437" y2="120.4053" x2="59.534" y1="114.3962" x1="55.8575" stroke-miterlimit="10" stroke-linecap="square" stroke-width="0" stroke="#000000" fill="none" clip-path="url(#SVGID_00000152246321034745994400000008520121386086297998_)"/>
    <line id="svg_438" y2="104.6368" x2="63.5098" y1="120.4053" x1="59.534" stroke-miterlimit="10" stroke-linecap="square" stroke-width="0" stroke="#000000" fill="none" clip-path="url(#SVGID_00000152246321034745994400000008520121386086297998_)"/>
    <line id="svg_439" y2="104.6368" x2="72.2308" y1="104.6368" x1="63.5098" stroke-miterlimit="10" stroke-linecap="square" stroke-width="0" stroke="#000000" fill="none" clip-path="url(#SVGID_00000152246321034745994400000008520121386086297998_)"/>
    <polygon id="svg_440" points="    54.233,115.1207 56.2423,113.9701 59.534,119.0416 63.2533,104.2958 72.2308,104.2958 72.2308,105.0204 63.7663,105.0204     59.9188,120.4053 59.192,120.4053 55.4728,114.865 54.4468,115.5043   " clip-rule="evenodd" fill-rule="evenodd" clip-path="url(#SVGID_00000152246321034745994400000008520121386086297998_)"/>
    <g id="svg_441" clip-path="url(#SVGID_00000152246321034745994400000008520121386086297998_)">
     <path id="svg_442" d="m53.143,117.0879l-0.6983,1.9121l-5.8779,0l0,-0.2715c1.7295,-1.5723 2.9463,-2.8564 3.6514,-3.8525c0.7061,-0.9961 1.0586,-1.9072 1.0586,-2.7324c0,-0.6299 -0.1934,-1.1475 -0.5801,-1.5527c-0.3877,-0.4053 -0.8506,-0.6084 -1.3887,-0.6084c-0.4902,0 -0.9297,0.1436 -1.3193,0.4287c-0.3896,0.2861 -0.6777,0.7051 -0.8633,1.2568l-0.2725,0c0.123,-0.9043 0.4375,-1.5977 0.9443,-2.0811s1.1406,-0.7246 1.8994,-0.7246c0.8086,0 1.4834,0.2588 2.0244,0.7764s0.8125,1.1279 0.8125,1.8311c0,0.5029 -0.1182,1.0059 -0.3535,1.5088c-0.3623,0.791 -0.9502,1.6289 -1.7627,2.5127c-1.2197,1.3281 -1.9814,2.1289 -2.2852,2.4023l2.6006,0c0.5293,0 0.9004,-0.0195 1.1133,-0.0586s0.4053,-0.1182 0.5771,-0.2383c0.1709,-0.1191 0.3203,-0.2891 0.4482,-0.5088l0.2717,0z"/>
     <path id="svg_443" d="m65.4838,109.0674l5.3418,0l0,0.2783l-3.3213,9.8594l-0.8232,0l2.9766,-8.9443l-2.7412,0c-0.5537,0 -0.9473,0.0664 -1.1826,0.1982c-0.4121,0.2246 -0.7422,0.5713 -0.9922,1.04l-0.2129,-0.0801l0.955,-2.3515z"/>
    </g>
   </g>
  </g>
  <g id="svg_444">
   <line id="svg_445" y2="123.5375" x2="67.67" y1="131.2275" x1="67.67" stroke-miterlimit="10" stroke-linejoin="round" stroke-linecap="round" stroke-width="0.75" stroke="#000000" fill="none"/>
   <line id="svg_446" y2="123.5375" x2="75.357" y1="123.5375" x1="67.67" stroke-miterlimit="10" stroke-linejoin="round" stroke-linecap="round" stroke-width="0.75" stroke="#000000" fill="none"/>
  </g>
  <g id="svg_447">
   <line id="svg_448" y2="123.5375" x2="106.739" y1="131.2275" x1="106.739" stroke-miterlimit="10" stroke-linejoin="round" stroke-linecap="round" stroke-width="0.75" stroke="#000000" fill="none"/>
   <line id="svg_449" y2="123.5375" x2="114.426" y1="123.5375" x1="106.739" stroke-miterlimit="10" stroke-linejoin="round" stroke-linecap="round" stroke-width="0.75" stroke="#000000" fill="none"/>
  </g>
  <path id="svg_450" d="m75.292,5.5815c-41.378,0 -74.917,33.508 -74.917,74.846c0,41.343 33.539,74.851 74.917,74.851s74.917,-33.508 74.917,-74.851c0,-41.338 -33.539,-74.846 -74.917,-74.846l0,0z" stroke-miterlimit="8" stroke-linejoin="round" stroke-linecap="round" stroke-width="0.75" stroke="#0D0F0F" fill="none"/>
 </g>
</svg>